<svg data-name="Group 6637" xmlns="http://www.w3.org/2000/svg" width="19" height="19" viewBox="0 0 19 19">
    <g data-name="Group 838">
        <path data-name="Path 394" d="M9.5 19A9.511 9.511 0 0 1 0 9.5a9.4 9.4 0 0 1 1.966-5.782l-.2-.958a.412.412 0 0 1 .134-.394L3.93.578a.414.414 0 0 1 .36-.093L5.7.793A9.22 9.22 0 0 1 9.5 0a9.132 9.132 0 0 1 3.76.776c.007 0 1.351-.292 1.351-.292a.413.413 0 0 1 .359.093l2.034 1.788a.412.412 0 0 1 .131.393l-.18.856A9.5 9.5 0 0 1 9.5 19M2.359 2.739 2.6 3.865l-.085.108A8.819 8.819 0 0 0 .586 9.5a8.914 8.914 0 1 0 15.828-5.624l-.088-.108.216-1.028-1.892-1.664-1.321.289a.293.293 0 0 1-.118 0l-.032.015-.122-.054A8.555 8.555 0 0 0 9.5.587a8.589 8.589 0 0 0-3.629.773l-.1.044-.1-.028h-.014a.639.639 0 0 1-.086-.011L4.25 1.076z" transform="translate(0 -.001)" style="fill:#545860"/>
        <path data-name="Path 395" d="M68.76 189.629a2.854 2.854 0 1 1 2.854-2.854 2.857 2.857 0 0 1-2.854 2.854m0-5.405a2.551 2.551 0 1 0 2.551 2.551 2.554 2.554 0 0 0-2.551-2.551m0 3.806a1.255 1.255 0 1 1 1.255-1.255 1.256 1.256 0 0 1-1.255 1.255m0-2.207a.952.952 0 1 0 .952.952.953.953 0 0 0-.952-.952" transform="translate(-63.364 -177.15)" style="fill:#545860"/>
        <path data-name="Path 396" d="M302.373 189.629a2.854 2.854 0 1 1 2.854-2.854 2.857 2.857 0 0 1-2.854 2.854m0-5.405a2.551 2.551 0 1 0 2.551 2.551 2.554 2.554 0 0 0-2.551-2.551m0 3.806a1.255 1.255 0 1 1 1.255-1.255 1.256 1.256 0 0 1-1.255 1.255m0-2.207a.952.952 0 1 0 .952.952.953.953 0 0 0-.952-.952" transform="translate(-288.6 -177.15)" style="fill:#545860"/>
        <path data-name="Path 397" d="M217.215 53.037a.26.26 0 0 1-.184-.076l-1.286-1.279a.263.263 0 0 1-.077-.212.251.251 0 0 1 .109-.186 2.49 2.49 0 0 1 2.836.034.253.253 0 0 1 .1.185.264.264 0 0 1-.076.208L217.4 52.96a.261.261 0 0 1-.185.077m-.042-.219a.059.059 0 0 0 .084 0l1.243-1.248a.062.062 0 0 0 .018-.049.049.049 0 0 0-.02-.038 2.288 2.288 0 0 0-2.6-.031.049.049 0 0 0-.021.037.062.062 0 0 0 .018.05zm-.008-.614a.558.558 0 1 1 .558-.558.558.558 0 0 1-.558.558m0-.914a.356.356 0 1 0 .356.356.356.356 0 0 0-.356-.356" transform="translate(-207.666 -48.897)" style="fill:#545860"/>
        <path data-name="Path 398" d="M190.866 77.755h-.021a.253.253 0 0 1-.186-.1 2.474 2.474 0 0 1 .006-2.916.252.252 0 0 1 .185-.1.258.258 0 0 1 .207.076l1.3 1.289a.261.261 0 0 1 0 .369l-1.3 1.31a.263.263 0 0 1-.187.078m.006-2.921a.053.053 0 0 0-.043.02 2.272 2.272 0 0 0-.006 2.679.05.05 0 0 0 .038.02.068.068 0 0 0 .049-.018l1.3-1.31a.059.059 0 0 0 0-.084l-1.3-1.289a.062.062 0 0 0-.044-.018m.13 1.927a.558.558 0 1 1 .558-.558.558.558 0 0 1-.558.558m0-.914a.356.356 0 1 0 .356.356.356.356 0 0 0-.356-.356" transform="translate(-183.119 -71.753)" style="fill:#545860"/>
        <path data-name="Path 399" d="M264.826 78.793a.259.259 0 0 1-.182-.075l-1.255-1.248a.261.261 0 0 1 0-.369l1.236-1.243a.258.258 0 0 1 .207-.075.267.267 0 0 1 .2.116 2.5 2.5 0 0 1 .021 2.775.267.267 0 0 1-.2.119h-.027m-1.3-1.466 1.255 1.248a.055.055 0 0 0 .046.016.066.066 0 0 0 .048-.03 2.3 2.3 0 0 0-.019-2.549.067.067 0 0 0-.048-.029.06.06 0 0 0-.046.017l-1.236 1.243a.059.059 0 0 0-.017.042.06.06 0 0 0 .018.042m1.157.518a.558.558 0 1 1 .558-.558.558.558 0 0 1-.558.558m0-.914a.356.356 0 1 0 .356.356.356.356 0 0 0-.356-.356" transform="translate(-253.523 -72.857)" style="fill:#545860"/>
        <path data-name="Path 400" d="M216.951 124.5a2.476 2.476 0 0 1-1.4-.434.251.251 0 0 1-.108-.185.263.263 0 0 1 .075-.211l1.3-1.306a.261.261 0 0 1 .369 0l1.266 1.259a.264.264 0 0 1 .077.207.252.252 0 0 1-.1.185 2.479 2.479 0 0 1-1.475.486m.05-2.01a.059.059 0 0 0-.042.017l-1.3 1.306a.062.062 0 0 0-.018.05.049.049 0 0 0 .021.038 2.28 2.28 0 0 0 2.642-.048.05.05 0 0 0 .02-.038.062.062 0 0 0-.018-.049l-1.266-1.259a.059.059 0 0 0-.042-.017m-.053 1.757a.558.558 0 1 1 .558-.558.558.558 0 0 1-.558.558m0-.914a.356.356 0 1 0 .356.356.356.356 0 0 0-.356-.356" transform="translate(-207.449 -117.744)" style="fill:#545860"/>
        <path data-name="Path 401" d="M218.031 333.665a.26.26 0 0 1-.184-.076l-1.286-1.279a.262.262 0 0 1-.077-.212.252.252 0 0 1 .109-.186 2.489 2.489 0 0 1 2.836.034.253.253 0 0 1 .1.185.263.263 0 0 1-.076.208l-1.241 1.248a.25.25 0 0 1-.185.077m-.045-1.977a2.276 2.276 0 0 0-1.28.392.05.05 0 0 0-.021.037.062.062 0 0 0 .018.05l1.286 1.279a.059.059 0 0 0 .084 0l1.241-1.248a.062.062 0 0 0 .018-.049.049.049 0 0 0-.02-.038 2.276 2.276 0 0 0-1.325-.423m-.005 1.161a.558.558 0 1 1 .558-.558.558.558 0 0 1-.558.558m0-.914a.356.356 0 1 0 .356.356.356.356 0 0 0-.356-.356" transform="translate(-208.452 -319.164)" style="fill:#545860"/>
        <path data-name="Path 402" d="M191.683 358.39h-.021a.253.253 0 0 1-.186-.1 2.474 2.474 0 0 1 .006-2.916.253.253 0 0 1 .185-.1.261.261 0 0 1 .207.076l1.3 1.29a.261.261 0 0 1 0 .369l-1.3 1.31a.264.264 0 0 1-.187.078m.006-2.921a.054.054 0 0 0-.043.021 2.272 2.272 0 0 0-.006 2.678.05.05 0 0 0 .038.02.066.066 0 0 0 .049-.018l1.3-1.31a.06.06 0 0 0 .017-.042.058.058 0 0 0-.017-.042l-1.3-1.289a.062.062 0 0 0-.044-.018m.12 1.927a.558.558 0 1 1 .558-.558.558.558 0 0 1-.558.558m0-.914a.356.356 0 1 0 .356.356.357.357 0 0 0-.356-.356" transform="translate(-183.906 -342.197)" style="fill:#545860"/>
        <path data-name="Path 403" d="M265.645 359.424a.258.258 0 0 1-.182-.075l-1.255-1.248a.261.261 0 0 1 0-.369l1.236-1.243a.257.257 0 0 1 .207-.075.268.268 0 0 1 .2.116 2.5 2.5 0 0 1 .021 2.775.267.267 0 0 1-.2.119h-.026m-.019-2.81a.054.054 0 0 0-.04.017l-1.237 1.243a.059.059 0 0 0 0 .084l1.255 1.248a.056.056 0 0 0 .046.016.066.066 0 0 0 .048-.03 2.3 2.3 0 0 0-.019-2.549.067.067 0 0 0-.049-.029h-.006m-.18 1.862a.558.558 0 1 1 .558-.558.558.558 0 0 1-.558.558m0-.914a.356.356 0 1 0 .356.356.356.356 0 0 0-.356-.356" transform="translate(-254.312 -343.298)" style="fill:#545860"/>
        <path data-name="Path 404" d="M217.768 405.129a2.475 2.475 0 0 1-1.4-.434.251.251 0 0 1-.108-.185.263.263 0 0 1 .075-.211l1.3-1.306a.261.261 0 0 1 .369 0l1.266 1.259a.263.263 0 0 1 .077.206.252.252 0 0 1-.1.185 2.479 2.479 0 0 1-1.475.486m.05-2.01a.059.059 0 0 0-.042.017l-1.3 1.306a.062.062 0 0 0-.018.05.049.049 0 0 0 .021.038 2.28 2.28 0 0 0 2.642-.048.05.05 0 0 0 .02-.038.062.062 0 0 0-.018-.049l-1.266-1.259a.059.059 0 0 0-.042-.017m-.053 1.759a.558.558 0 1 1 .558-.558.558.558 0 0 1-.558.558m0-.914a.356.356 0 1 0 .356.356.356.356 0 0 0-.356-.356" transform="translate(-208.235 -388.009)" style="fill:#545860"/>
    </g>
</svg>
