<svg width="50" height="50" viewBox="0 0 50 50" fill="none" xmlns="http://www.w3.org/2000/svg">
    <path d="M25 50c13.807 0 25-11.193 25-25S38.807 0 25 0 0 11.193 0 25s11.193 25 25 25z" fill="#00AB84"/>
    <path d="M27.877 35.527a1.638 1.638 0 0 1-.464-1.155 1.498 1.498 0 0 1 .418-1.107l6.471-6.648H11.895a1.5 1.5 0 0 1-1.122-.459 1.59 1.59 0 0 1-.446-1.155 1.59 1.59 0 0 1 .446-1.155 1.5 1.5 0 0 1 1.122-.459h22.407l-6.517-6.707a1.471 1.471 0 0 1-.435-1.12c.012-.424.184-.828.481-1.131a1.592 1.592 0 0 1 1.122-.436 1.436 1.436 0 0 1 1.076.436l9.162 9.44c.155.154.28.336.366.536.077.189.116.391.114.595.002.204-.037.406-.114.595a1.72 1.72 0 0 1-.366.536l-9.116 9.393a1.465 1.465 0 0 1-1.1.477 1.522 1.522 0 0 1-1.098-.476z" fill="#fff"/>
</svg>
