<svg width="25" height="30" viewBox="0 0 25 30" fill="none" xmlns="http://www.w3.org/2000/svg">
    <path d="m13.734 30.001-.23-4.3-1.45-.02A12.114 12.114 0 0 1 3.5 21.709 12.533 12.533 0 0 1 0 12.831 12.4 12.4 0 0 1 3.729 3.75 12.246 12.246 0 0 1 12.742.001a12.056 12.056 0 0 1 4.828.962c1.46.623 2.78 1.533 3.882 2.675a12.57 12.57 0 0 1 2.6 4.047c.643 1.615.965 3.34.948 5.079a17.2 17.2 0 0 1-3.1 9.768 23.752 23.752 0 0 1-8.166 7.469zm-.981-8.805a1.454 1.454 0 0 0 1.076-.448 1.484 1.484 0 0 0 .44-1.082 1.484 1.484 0 0 0-.44-1.082 1.454 1.454 0 0 0-1.076-.448 1.453 1.453 0 0 0-1.076.448 1.485 1.485 0 0 0-.441 1.082 1.485 1.485 0 0 0 .44 1.082 1.453 1.453 0 0 0 1.077.447v.001zm-.073-4.938a1 1 0 0 0 .7-.287c.214-.205.366-.467.438-.755.091-.334.245-.647.454-.923a8.94 8.94 0 0 1 .927-1.035 7.507 7.507 0 0 0 1.35-1.786 3.954 3.954 0 0 0 .393-1.776 3.74 3.74 0 0 0-1.07-2.752 3.99 3.99 0 0 0-2.962-1.077c-.82-.007-1.626.2-2.341.6a4.864 4.864 0 0 0-1.73 1.624.783.783 0 0 0-.09.8 1.077 1.077 0 0 0 .62.6c.232.084.486.084.717 0 .268-.092.502-.262.672-.488.216-.332.523-.594.883-.758.356-.158.74-.238 1.13-.236a2.284 2.284 0 0 1 1.5.45 1.524 1.524 0 0 1 .542 1.239c-.014.455-.145.9-.382 1.289a8.97 8.97 0 0 1-1.3 1.641c-.39.4-.742.835-1.053 1.3a3.03 3.03 0 0 0-.432 1.267.86.86 0 0 0 .258.747 1.042 1.042 0 0 0 .776.315v.001zm3.46 6.668v2.187a17.708 17.708 0 0 0 4.469-5.743 14.933 14.933 0 0 0 1.617-6.605 9.877 9.877 0 0 0-2.695-7.162 9.056 9.056 0 0 0-6.8-2.787 9.574 9.574 0 0 0-7.076 2.936 9.738 9.738 0 0 0-2.9 7.109 9.77 9.77 0 0 0 2.9 7.119 9.478 9.478 0 0 0 7.006 2.946h3.48z" fill="#FF9800"/>
</svg>
