<svg xmlns="http://www.w3.org/2000/svg" width="18" height="18" viewBox="0 0 18 18">
    <path d="m73.557-884.033-1.9-1.9a.818.818 0 0 0-.6-.245.885.885 0 0 0-.633.266.858.858 0 0 0-.245.613.8.8 0 0 0 .257.6l2.5 2.524a.849.849 0 0 0 .612.257.871.871 0 0 0 .619-.257l5.043-5.056a.83.83 0 0 0 .279-.617.86.86 0 0 0-.279-.627.867.867 0 0 0-.635-.234.9.9 0 0 0-.622.256zm1.308 7.337a8.78 8.78 0 0 1-3.5-.7 9.062 9.062 0 0 1-2.866-1.929 9.067 9.067 0 0 1-1.929-2.865 8.765 8.765 0 0 1-.7-3.495 8.831 8.831 0 0 1 .7-3.518 8.955 8.955 0 0 1 1.927-2.856 9.2 9.2 0 0 1 2.863-1.925 8.716 8.716 0 0 1 3.5-.709 8.8 8.8 0 0 1 3.521.708 9.085 9.085 0 0 1 2.856 1.922 9.078 9.078 0 0 1 1.923 2.855 8.788 8.788 0 0 1 .708 3.521 8.722 8.722 0 0 1-.709 3.5 9.209 9.209 0 0 1-1.925 2.864 8.958 8.958 0 0 1-2.854 1.928 8.822 8.822 0 0 1-3.515.695zm0-1.72a7.01 7.01 0 0 0 5.154-2.122 7.019 7.019 0 0 0 2.119-5.151 7.016 7.016 0 0 0-2.119-5.154 7.023 7.023 0 0 0-5.16-2.119 7.013 7.013 0 0 0-5.143 2.119 7.016 7.016 0 0 0-2.124 5.16 7.008 7.008 0 0 0 2.122 5.143 7.011 7.011 0 0 0 5.149 2.123zm-.002-7.274z" transform="translate(-65.869 894.696)" style="fill:#00ab84"/>
</svg>
