<svg xmlns="http://www.w3.org/2000/svg" width="14" height="15" viewBox="0 0 14 15">
    <path d="M119.025-865a1.981 1.981 0 0 1-1.434-.574 1.872 1.872 0 0 1-.591-1.395v-2.344h2.449V-880l1.153 1.125 1.153-1.125 1.153 1.125 1.154-1.125 1.153 1.125 1.157-1.125 1.157 1.125 1.157-1.125 1.157 1.125L131-880v13.031a1.872 1.872 0 0 1-.591 1.395 1.981 1.981 0 0 1-1.434.574zm9.95-1.125a.861.861 0 0 0 .627-.234.812.812 0 0 0 .241-.609v-11.156h-9.237v8.813h7.5v2.344a.812.812 0 0 0 .241.609.861.861 0 0 0 .628.233zm-7.347-9.037v-1.125h4.628v1.125zm0 2.512v-1.125h4.628v1.125zm6.421-2.512a.563.563 0 0 1-.4-.169.533.533 0 0 1-.174-.394.533.533 0 0 1 .174-.394.563.563 0 0 1 .4-.169.563.563 0 0 1 .4.169.533.533 0 0 1 .174.394.533.533 0 0 1-.174.394.563.563 0 0 1-.399.169zm0 2.419a.563.563 0 0 1-.4-.169.533.533 0 0 1-.174-.394.533.533 0 0 1 .174-.394.563.563 0 0 1 .4-.169.563.563 0 0 1 .4.169.533.533 0 0 1 .174.394.533.533 0 0 1-.174.394.563.563 0 0 1-.399.168zm-9.044 6.619h7.945v-2.062h-8.793v1.219a.807.807 0 0 0 .244.609.839.839 0 0 0 .605.233zm-.848 0z" transform="translate(-117 880)" style="fill:#545860"/>
</svg>
