<svg xmlns="http://www.w3.org/2000/svg" width="33" height="22" viewBox="0 0 33 22">
    <path d="M17.188-789.069a7.819 7.819 0 0 0 1.53-2.509 8.2 8.2 0 0 0 .533-2.922 8.2 8.2 0 0 0-.533-2.922 7.819 7.819 0 0 0-1.53-2.509 5.415 5.415 0 0 1 3.438 1.822A5.263 5.263 0 0 1 22-794.5a5.263 5.263 0 0 1-1.375 3.609 5.415 5.415 0 0 1-3.437 1.822zM24.1-778a1.649 1.649 0 0 0 .481-.6 1.855 1.855 0 0 0 .172-.808v-2.716a5.264 5.264 0 0 0-.55-2.355 7.027 7.027 0 0 0-1.444-1.977 15.028 15.028 0 0 1 3.248 1.6 3.093 3.093 0 0 1 1.5 2.733v2.75a1.331 1.331 0 0 1-.4.98 1.331 1.331 0 0 1-.98.4zm4.778-9.625a1.331 1.331 0 0 1-.98-.4 1.331 1.331 0 0 1-.4-.98v-1.375h-1.373a1.331 1.331 0 0 1-.98-.4 1.331 1.331 0 0 1-.4-.98 1.331 1.331 0 0 1 .4-.98 1.331 1.331 0 0 1 .98-.4H27.5v-1.36a1.331 1.331 0 0 1 .4-.98 1.331 1.331 0 0 1 .98-.4 1.331 1.331 0 0 1 .98.4 1.331 1.331 0 0 1 .4.98v1.375h1.375a1.331 1.331 0 0 1 .98.4 1.331 1.331 0 0 1 .4.98 1.331 1.331 0 0 1-.4.98 1.331 1.331 0 0 1-.98.4H30.25V-789a1.331 1.331 0 0 1-.4.98 1.331 1.331 0 0 1-.975.395zM11-789a5.3 5.3 0 0 1-3.884-1.616A5.3 5.3 0 0 1 5.5-794.5a5.3 5.3 0 0 1 1.616-3.884A5.3 5.3 0 0 1 11-800a5.3 5.3 0 0 1 3.884 1.616A5.3 5.3 0 0 1 16.5-794.5a5.3 5.3 0 0 1-1.616 3.884A5.3 5.3 0 0 1 11-789zm-9.625 11a1.331 1.331 0 0 1-.98-.4 1.331 1.331 0 0 1-.4-.98v-2.475A4.027 4.027 0 0 1 .6-784a4.009 4.009 0 0 1 1.6-1.5 20.413 20.413 0 0 1 4.331-1.6 18.917 18.917 0 0 1 4.469-.525 18.917 18.917 0 0 1 4.469.533 20.413 20.413 0 0 1 4.331 1.6 4.009 4.009 0 0 1 1.6 1.5 4.027 4.027 0 0 1 .6 2.148v2.475a1.331 1.331 0 0 1-.4.98 1.331 1.331 0 0 1-.98.4zM11-791.75a2.648 2.648 0 0 0 1.942-.808 2.648 2.648 0 0 0 .808-1.942 2.648 2.648 0 0 0-.808-1.942A2.648 2.648 0 0 0 11-797.25a2.648 2.648 0 0 0-1.942.808 2.648 2.648 0 0 0-.808 1.942 2.648 2.648 0 0 0 .808 1.942 2.648 2.648 0 0 0 1.942.808zm-8.25 11h16.5v-1.1a1.292 1.292 0 0 0-.189-.687 1.338 1.338 0 0 0-.5-.481 17.926 17.926 0 0 0-3.747-1.392 15.947 15.947 0 0 0-3.814-.465 15.947 15.947 0 0 0-3.816.464 17.926 17.926 0 0 0-3.747 1.392 1.338 1.338 0 0 0-.5.481 1.292 1.292 0 0 0-.189.688zM11-794.5zm0 13.75z" transform="translate(0 800)" style="fill:#fff"/>
</svg>
