<svg width="192" height="64" viewBox="0 0 192 64" fill="none" xmlns="http://www.w3.org/2000/svg">
<path d="M187.103 13.18C186.623 13.18 186.167 13.12 185.735 13C185.315 12.868 184.925 12.688 184.565 12.46C184.205 12.22 183.893 11.938 183.629 11.614L184.673 10.57C184.985 10.954 185.345 11.242 185.753 11.434C186.161 11.614 186.617 11.704 187.121 11.704C187.625 11.704 188.015 11.62 188.291 11.452C188.567 11.272 188.705 11.026 188.705 10.714C188.705 10.402 188.591 10.162 188.363 9.99399C188.147 9.81399 187.865 9.66999 187.517 9.56199C187.169 9.44199 186.797 9.32799 186.401 9.21999C186.017 9.09999 185.651 8.94999 185.303 8.76999C184.955 8.58999 184.667 8.34399 184.439 8.03199C184.223 7.71999 184.115 7.30599 184.115 6.78999C184.115 6.27399 184.241 5.82999 184.493 5.45799C184.745 5.07399 185.093 4.77999 185.537 4.57599C185.993 4.37199 186.539 4.26999 187.175 4.26999C187.847 4.26999 188.441 4.38999 188.957 4.62999C189.485 4.85799 189.917 5.20599 190.253 5.67399L189.209 6.71799C188.969 6.40599 188.669 6.16599 188.309 5.99799C187.961 5.82999 187.565 5.74599 187.121 5.74599C186.653 5.74599 186.293 5.82999 186.041 5.99799C185.801 6.15399 185.681 6.37599 185.681 6.66399C185.681 6.95199 185.789 7.17399 186.005 7.32999C186.221 7.48599 186.503 7.61799 186.851 7.72599C187.211 7.83399 187.583 7.94799 187.967 8.06799C188.351 8.17599 188.717 8.32599 189.065 8.51799C189.413 8.70999 189.695 8.96799 189.911 9.29199C190.139 9.61599 190.253 10.042 190.253 10.57C190.253 11.374 189.965 12.01 189.389 12.478C188.825 12.946 188.063 13.18 187.103 13.18Z" fill="#545860"/>
<path d="M181.402 13L177.406 8.62601L181.366 4.45001H183.328L178.918 9.05801L178.99 8.12201L183.49 13H181.402ZM175.93 13V0.14801H177.55V13H175.93Z" fill="#545860"/>
<path d="M168.706 13V4.44999H170.326V13H168.706ZM170.326 8.12199L169.714 7.85199C169.714 6.75999 169.966 5.88999 170.47 5.24199C170.974 4.59399 171.7 4.26999 172.648 4.26999C173.08 4.26999 173.47 4.34799 173.818 4.50399C174.166 4.64799 174.49 4.89399 174.79 5.24199L173.728 6.33999C173.548 6.14799 173.35 6.00999 173.134 5.92599C172.918 5.84199 172.666 5.79999 172.378 5.79999C171.778 5.79999 171.286 5.99199 170.902 6.37599C170.518 6.75999 170.326 7.34199 170.326 8.12199Z" fill="#545860"/>
<path d="M162.417 13.18C161.577 13.18 160.821 12.982 160.149 12.586C159.477 12.19 158.943 11.656 158.547 10.984C158.151 10.3 157.953 9.53799 157.953 8.69799C157.953 7.86999 158.151 7.12599 158.547 6.46599C158.943 5.79399 159.477 5.25999 160.149 4.86399C160.821 4.46799 161.577 4.26999 162.417 4.26999C163.245 4.26999 163.995 4.46799 164.667 4.86399C165.351 5.24799 165.891 5.77599 166.287 6.44799C166.683 7.11999 166.881 7.86999 166.881 8.69799C166.881 9.53799 166.683 10.3 166.287 10.984C165.891 11.656 165.351 12.19 164.667 12.586C163.995 12.982 163.245 13.18 162.417 13.18ZM162.417 11.614C162.957 11.614 163.437 11.488 163.857 11.236C164.277 10.984 164.607 10.642 164.847 10.21C165.087 9.76599 165.207 9.26199 165.207 8.69799C165.207 8.14599 165.081 7.65399 164.829 7.22199C164.589 6.78999 164.259 6.45399 163.839 6.21399C163.431 5.96199 162.957 5.83599 162.417 5.83599C161.877 5.83599 161.397 5.96199 160.977 6.21399C160.557 6.45399 160.227 6.78999 159.987 7.22199C159.747 7.65399 159.627 8.14599 159.627 8.69799C159.627 9.26199 159.747 9.76599 159.987 10.21C160.227 10.642 160.557 10.984 160.977 11.236C161.397 11.488 161.877 11.614 162.417 11.614Z" fill="#545860"/>
<path d="M147.704 13L144.32 4.45001H146.012L148.46 11.11H147.92L150.35 4.45001H151.286L153.716 11.11H153.176L155.624 4.45001H157.316L153.95 13H152.996L150.53 6.53801H151.124L148.64 13H147.704Z" fill="#545860"/>
<path d="M139.943 13V0.868011H141.563V13H139.943ZM137.837 5.92601V4.45001H143.669V5.92601H137.837Z" fill="#545860"/>
<path d="M133.185 13.18C132.333 13.18 131.565 12.988 130.881 12.604C130.197 12.208 129.657 11.674 129.261 11.002C128.865 10.33 128.667 9.56799 128.667 8.71599C128.667 7.87599 128.859 7.11999 129.243 6.44799C129.639 5.77599 130.167 5.24799 130.827 4.86399C131.499 4.46799 132.249 4.26999 133.077 4.26999C133.869 4.26999 134.565 4.44999 135.165 4.80999C135.777 5.16999 136.251 5.66799 136.587 6.30399C136.935 6.93999 137.109 7.65999 137.109 8.46399C137.109 8.58399 137.103 8.71599 137.091 8.85999C137.079 8.99199 137.055 9.14799 137.019 9.32799H129.801V7.97799H136.155L135.561 8.49999C135.561 7.92399 135.459 7.43799 135.255 7.04199C135.051 6.63399 134.763 6.32199 134.391 6.10599C134.019 5.87799 133.569 5.76399 133.041 5.76399C132.489 5.76399 132.003 5.88399 131.583 6.12399C131.163 6.36399 130.839 6.69999 130.611 7.13199C130.383 7.56399 130.269 8.07399 130.269 8.66199C130.269 9.26199 130.389 9.78999 130.629 10.246C130.869 10.69 131.211 11.038 131.655 11.29C132.099 11.53 132.609 11.65 133.185 11.65C133.665 11.65 134.103 11.566 134.499 11.398C134.907 11.23 135.255 10.978 135.543 10.642L136.587 11.704C136.179 12.184 135.675 12.55 135.075 12.802C134.487 13.054 133.857 13.18 133.185 13.18Z" fill="#545860"/>
<path d="M116.734 13V0.507996H117.922L118.426 2.47V13H116.734ZM125.374 13L117.706 2.758L117.922 0.507996L125.608 10.732L125.374 13ZM125.374 13L124.87 11.146V0.507996H126.562V13H125.374Z" fill="#545860"/>
<path d="M106.264 13.072L102.556 4.45001H104.356L107.11 11.2H106.534L109.432 4.45001H111.232L107.236 13.072H106.264ZM103.816 16.582L106.336 11.416L107.236 13.072L105.616 16.582H103.816Z" fill="#0069CB"/>
<path d="M96.5781 16.762C95.7021 16.762 94.9221 16.6 94.2381 16.276C93.5661 15.952 93.0261 15.496 92.6181 14.908L93.6621 13.846C94.0101 14.29 94.4241 14.626 94.9041 14.854C95.3841 15.094 95.9541 15.214 96.6141 15.214C97.4901 15.214 98.1801 14.98 98.6841 14.512C99.2001 14.056 99.4581 13.438 99.4581 12.658V10.534L99.7461 8.60799L99.4581 6.69999V4.44999H101.078V12.658C101.078 13.474 100.886 14.188 100.502 14.8C100.13 15.412 99.6021 15.892 98.9181 16.24C98.2461 16.588 97.4661 16.762 96.5781 16.762ZM96.5781 12.856C95.7981 12.856 95.0961 12.67 94.4721 12.298C93.8601 11.926 93.3741 11.416 93.0141 10.768C92.6541 10.108 92.4741 9.36999 92.4741 8.55399C92.4741 7.73799 92.6541 7.01199 93.0141 6.37599C93.3741 5.72799 93.8601 5.21799 94.4721 4.84599C95.0961 4.46199 95.7981 4.26999 96.5781 4.26999C97.2501 4.26999 97.8441 4.40199 98.3601 4.66599C98.8761 4.92999 99.2841 5.30199 99.5841 5.78199C99.8961 6.24999 100.064 6.80199 100.088 7.43799V9.70599C100.052 10.33 99.8781 10.882 99.5661 11.362C99.2661 11.83 98.8581 12.196 98.3421 12.46C97.8261 12.724 97.2381 12.856 96.5781 12.856ZM96.9021 11.326C97.4301 11.326 97.8921 11.212 98.2881 10.984C98.6961 10.756 99.0081 10.438 99.2241 10.03C99.4401 9.60999 99.5481 9.12399 99.5481 8.57199C99.5481 8.01999 99.4341 7.53999 99.2061 7.13199C98.9901 6.71199 98.6841 6.38799 98.2881 6.15999C97.8921 5.91999 97.4241 5.79999 96.8841 5.79999C96.3441 5.79999 95.8701 5.91999 95.4621 6.15999C95.0541 6.38799 94.7301 6.71199 94.4901 7.13199C94.2621 7.53999 94.1481 8.01399 94.1481 8.55399C94.1481 9.09399 94.2621 9.57399 94.4901 9.99399C94.7301 10.414 95.0541 10.744 95.4621 10.984C95.8821 11.212 96.3621 11.326 96.9021 11.326Z" fill="#0069CB"/>
<path d="M86.0884 13V4.44999H87.7084V13H86.0884ZM87.7084 8.12199L87.0964 7.85199C87.0964 6.75999 87.3484 5.88999 87.8524 5.24199C88.3564 4.59399 89.0824 4.26999 90.0304 4.26999C90.4624 4.26999 90.8524 4.34799 91.2004 4.50399C91.5484 4.64799 91.8724 4.89399 92.1724 5.24199L91.1104 6.33999C90.9304 6.14799 90.7324 6.00999 90.5164 5.92599C90.3004 5.84199 90.0484 5.79999 89.7604 5.79999C89.1604 5.79999 88.6684 5.99199 88.2844 6.37599C87.9004 6.75999 87.7084 7.34199 87.7084 8.12199Z" fill="#0069CB"/>
<path d="M80.3984 13.18C79.5464 13.18 78.7784 12.988 78.0944 12.604C77.4104 12.208 76.8704 11.674 76.4744 11.002C76.0784 10.33 75.8804 9.56799 75.8804 8.71599C75.8804 7.87599 76.0724 7.11999 76.4564 6.44799C76.8524 5.77599 77.3804 5.24799 78.0404 4.86399C78.7124 4.46799 79.4624 4.26999 80.2904 4.26999C81.0824 4.26999 81.7784 4.44999 82.3784 4.80999C82.9904 5.16999 83.4644 5.66799 83.8004 6.30399C84.1484 6.93999 84.3224 7.65999 84.3224 8.46399C84.3224 8.58399 84.3164 8.71599 84.3044 8.85999C84.2924 8.99199 84.2684 9.14799 84.2324 9.32799H77.0144V7.97799H83.3684L82.7744 8.49999C82.7744 7.92399 82.6724 7.43799 82.4684 7.04199C82.2644 6.63399 81.9764 6.32199 81.6044 6.10599C81.2324 5.87799 80.7824 5.76399 80.2544 5.76399C79.7024 5.76399 79.2164 5.88399 78.7964 6.12399C78.3764 6.36399 78.0524 6.69999 77.8244 7.13199C77.5964 7.56399 77.4824 8.07399 77.4824 8.66199C77.4824 9.26199 77.6024 9.78999 77.8424 10.246C78.0824 10.69 78.4244 11.038 78.8684 11.29C79.3124 11.53 79.8224 11.65 80.3984 11.65C80.8784 11.65 81.3164 11.566 81.7124 11.398C82.1204 11.23 82.4684 10.978 82.7564 10.642L83.8004 11.704C83.3924 12.184 82.8884 12.55 82.2884 12.802C81.7004 13.054 81.0704 13.18 80.3984 13.18Z" fill="#0069CB"/>
<path d="M72.6247 13V8.01399C72.6247 7.36599 72.4207 6.83199 72.0127 6.41199C71.6047 5.99199 71.0767 5.78199 70.4287 5.78199C69.9967 5.78199 69.6127 5.87799 69.2767 6.06999C68.9407 6.26199 68.6767 6.52599 68.4847 6.86199C68.2927 7.19799 68.1967 7.58199 68.1967 8.01399L67.5307 7.63599C67.5307 6.98799 67.6747 6.41199 67.9627 5.90799C68.2507 5.40399 68.6527 5.00799 69.1687 4.71999C69.6847 4.41999 70.2667 4.26999 70.9147 4.26999C71.5627 4.26999 72.1327 4.43199 72.6247 4.75599C73.1287 5.07999 73.5247 5.50599 73.8127 6.03399C74.1007 6.54999 74.2447 7.10199 74.2447 7.68999V13H72.6247ZM66.5767 13V4.44999H68.1967V13H66.5767Z" fill="#0069CB"/>
<path d="M56.2476 13V0.507996H57.9396V13H56.2476ZM57.3996 13V11.452H64.5636V13H57.3996ZM57.3996 7.348V5.872H63.9696V7.348H57.3996ZM57.3996 2.05599V0.507996H64.4736V2.05599H57.3996Z" fill="#0069CB"/>
<path d="M48.402 13V8.01399C48.402 7.36599 48.198 6.83199 47.79 6.41199C47.382 5.99199 46.854 5.78199 46.206 5.78199C45.774 5.78199 45.39 5.87799 45.054 6.06999C44.718 6.26199 44.454 6.52599 44.262 6.86199C44.07 7.19799 43.974 7.58199 43.974 8.01399L43.308 7.63599C43.308 6.98799 43.452 6.41199 43.74 5.90799C44.028 5.40399 44.43 5.00799 44.946 4.71999C45.462 4.41999 46.044 4.26999 46.692 4.26999C47.34 4.26999 47.91 4.43199 48.402 4.75599C48.906 5.07999 49.302 5.50599 49.59 6.03399C49.878 6.54999 50.022 7.10199 50.022 7.68999V13H48.402ZM42.354 13V4.44999H43.974V13H42.354Z" fill="#00AB84"/>
<path d="M36.664 13.18C35.812 13.18 35.044 12.988 34.36 12.604C33.676 12.208 33.136 11.674 32.74 11.002C32.344 10.33 32.146 9.56799 32.146 8.71599C32.146 7.87599 32.338 7.11999 32.722 6.44799C33.118 5.77599 33.646 5.24799 34.306 4.86399C34.978 4.46799 35.728 4.26999 36.556 4.26999C37.348 4.26999 38.044 4.44999 38.644 4.80999C39.256 5.16999 39.73 5.66799 40.066 6.30399C40.414 6.93999 40.588 7.65999 40.588 8.46399C40.588 8.58399 40.582 8.71599 40.57 8.85999C40.558 8.99199 40.534 9.14799 40.498 9.32799H33.28V7.97799H39.634L39.04 8.49999C39.04 7.92399 38.938 7.43799 38.734 7.04199C38.53 6.63399 38.242 6.32199 37.87 6.10599C37.498 5.87799 37.048 5.76399 36.52 5.76399C35.968 5.76399 35.482 5.88399 35.062 6.12399C34.642 6.36399 34.318 6.69999 34.09 7.13199C33.862 7.56399 33.748 8.07399 33.748 8.66199C33.748 9.26199 33.868 9.78999 34.108 10.246C34.348 10.69 34.69 11.038 35.134 11.29C35.578 11.53 36.088 11.65 36.664 11.65C37.144 11.65 37.582 11.566 37.978 11.398C38.386 11.23 38.734 10.978 39.022 10.642L40.066 11.704C39.658 12.184 39.154 12.55 38.554 12.802C37.966 13.054 37.336 13.18 36.664 13.18Z" fill="#00AB84"/>
<path d="M27.0136 13.18C26.1616 13.18 25.3936 12.988 24.7096 12.604C24.0256 12.208 23.4856 11.674 23.0896 11.002C22.6936 10.33 22.4956 9.56799 22.4956 8.71599C22.4956 7.87599 22.6876 7.11999 23.0716 6.44799C23.4676 5.77599 23.9956 5.24799 24.6556 4.86399C25.3276 4.46799 26.0776 4.26999 26.9056 4.26999C27.6976 4.26999 28.3936 4.44999 28.9936 4.80999C29.6056 5.16999 30.0796 5.66799 30.4156 6.30399C30.7636 6.93999 30.9376 7.65999 30.9376 8.46399C30.9376 8.58399 30.9316 8.71599 30.9196 8.85999C30.9076 8.99199 30.8836 9.14799 30.8476 9.32799H23.6296V7.97799H29.9836L29.3896 8.49999C29.3896 7.92399 29.2876 7.43799 29.0836 7.04199C28.8796 6.63399 28.5916 6.32199 28.2196 6.10599C27.8476 5.87799 27.3976 5.76399 26.8696 5.76399C26.3176 5.76399 25.8316 5.88399 25.4116 6.12399C24.9916 6.36399 24.6676 6.69999 24.4396 7.13199C24.2116 7.56399 24.0976 8.07399 24.0976 8.66199C24.0976 9.26199 24.2176 9.78999 24.4576 10.246C24.6976 10.69 25.0396 11.038 25.4836 11.29C25.9276 11.53 26.4376 11.65 27.0136 11.65C27.4936 11.65 27.9316 11.566 28.3276 11.398C28.7356 11.23 29.0836 10.978 29.3716 10.642L30.4156 11.704C30.0076 12.184 29.5036 12.55 28.9036 12.802C28.3156 13.054 27.6856 13.18 27.0136 13.18Z" fill="#00AB84"/>
<path d="M16.1099 13V4.44999H17.7299V13H16.1099ZM17.7299 8.12199L17.1179 7.85199C17.1179 6.75999 17.3699 5.88999 17.8739 5.24199C18.3779 4.59399 19.1039 4.26999 20.0519 4.26999C20.4839 4.26999 20.8739 4.34799 21.2219 4.50399C21.5699 4.64799 21.8939 4.89399 22.1939 5.24199L21.1319 6.33999C20.9519 6.14799 20.7539 6.00999 20.5379 5.92599C20.3219 5.84199 20.0699 5.79999 19.7819 5.79999C19.1819 5.79999 18.6899 5.99199 18.3059 6.37599C17.9219 6.75999 17.7299 7.34199 17.7299 8.12199Z" fill="#00AB84"/>
<path d="M8.12819 13.18C7.25219 13.18 6.43019 13.018 5.66219 12.694C4.90619 12.358 4.24019 11.896 3.66419 11.308C3.10019 10.72 2.65619 10.036 2.33219 9.256C2.00819 8.476 1.84619 7.636 1.84619 6.736C1.84619 5.836 2.00819 5.002 2.33219 4.234C2.65619 3.454 3.10619 2.77 3.68219 2.182C4.25819 1.594 4.93019 1.138 5.69819 0.814003C6.47819 0.490003 7.32419 0.328003 8.23619 0.328003C9.23219 0.328003 10.1502 0.520003 10.9902 0.904003C11.8302 1.288 12.5322 1.84 13.0962 2.56L11.9262 3.73C11.5302 3.154 11.0082 2.716 10.3602 2.416C9.71219 2.104 9.00419 1.948 8.23619 1.948C7.32419 1.948 6.51419 2.152 5.80619 2.56C5.11019 2.968 4.56419 3.532 4.16819 4.252C3.78419 4.972 3.59219 5.8 3.59219 6.736C3.59219 7.684 3.79019 8.518 4.18619 9.238C4.58219 9.958 5.11619 10.522 5.78819 10.93C6.46019 11.338 7.22819 11.542 8.09219 11.542C8.96819 11.542 9.72419 11.374 10.3602 11.038C11.0082 10.702 11.5062 10.21 11.8542 9.562C12.2022 8.902 12.3762 8.098 12.3762 7.15L13.4022 7.888H8.00219V6.34H14.1222V6.592C14.1222 8.044 13.8642 9.262 13.3482 10.246C12.8442 11.218 12.1362 11.95 11.2242 12.442C10.3242 12.934 9.29219 13.18 8.12819 13.18Z" fill="#00AB84"/>
<path d="M17.356 63.9886C14.9458 63.9886 12.6887 63.5332 10.5803 62.6223C8.4761 61.7115 6.627 60.4284 5.0372 58.7732C3.4474 57.1179 2.21042 55.2043 1.32625 53.0366C0.442084 50.869 0 48.5262 0 46.0083C0 43.4904 0.450585 41.0994 1.35176 38.9318C2.25293 36.7642 3.50691 34.8593 5.11372 33.2215C6.72052 31.5838 8.59938 30.3095 10.7545 29.3986C12.9054 28.4834 15.2349 28.028 17.7429 28.028C20.5399 28.028 23.1116 28.5666 25.4581 29.6439C27.8045 30.7211 29.7514 32.2363 31.2902 34.1893L26.8523 38.761C25.7896 37.3378 24.4719 36.2431 22.8991 35.4811C21.322 34.7192 19.5877 34.3382 17.6918 34.3382C15.5367 34.3382 13.6323 34.8286 11.9788 35.8052C10.321 36.7817 9.02871 38.1392 8.09778 39.8777C7.16686 41.6161 6.69927 43.6436 6.69927 45.9601C6.69927 48.2766 7.15835 50.3216 8.07228 52.0952C8.99045 53.8687 10.2402 55.2481 11.8342 56.2421C13.4283 57.2361 15.2476 57.731 17.305 57.731C19.3624 57.731 21.2413 57.3281 22.7546 56.5136C24.2636 55.7035 25.4241 54.5124 26.2275 52.9359C27.0309 51.3639 27.4347 49.4327 27.4347 47.1512L31.728 50.1815L16.9267 50.0326V44.1735H34.1892V45.1194C34.1892 49.2926 33.4666 52.7783 32.0213 55.5765C30.576 58.3747 28.5909 60.4766 26.0659 61.8823C23.541 63.2923 20.6419 63.993 17.3645 63.993L17.356 63.9886Z" fill="#0069CB"/>
<path d="M39.1084 48.888V43.6244H51.2189C52.8258 43.6244 54.0712 43.204 54.9554 42.3589C55.8396 41.5137 56.2817 40.3489 56.2817 38.8557C56.2817 37.4982 55.8396 36.364 54.9554 35.4532C54.0712 34.5423 52.8258 34.0869 51.2189 34.0869H39.1084V28.5737H51.7971C53.982 28.5737 55.9033 29.0116 57.5569 29.8918C59.2105 30.7676 60.4985 31.9718 61.4124 33.4914C62.3306 35.0153 62.7854 36.7712 62.7854 38.7549C62.7854 40.7386 62.3263 42.5866 61.4124 44.093C60.4985 45.5994 59.202 46.7729 57.5314 47.6181C55.8608 48.4633 53.914 48.8836 51.6993 48.8836H39.1084V48.888ZM57.0511 63.4921L45.8672 48.3932L51.8948 46.4577L65.0086 63.4965H57.0553L57.0511 63.4921Z" fill="#0069CB"/>
<path d="M96.5742 34.5336V28.5737H121.535V34.5336H96.5742ZM96.5742 63.4921V57.5322H121.833V63.4921H96.5742Z" fill="#0069CB"/>
<path d="M170.47 42.9282L192.001 62.9447V28.0263H186.049V48.0472L164.519 28.0263V37.0559L170.47 42.9282Z" fill="#00AB84"/>
<path d="M164.519 62.9446H170.47V51.6861L164.519 45.8138V62.9446Z" fill="#00AB84"/>
<path d="M73.3309 34.5336H92.6976V28.5737H73.3309H67.7368V63.4921H92.9951V57.5322H73.3309V34.5336Z" fill="#0069CB"/>
<path d="M143.255 28C135.434 28 128.815 33.2942 126.588 40.5941H132.033C133.895 36.1538 138.184 33.0446 143.179 33.0446C149.882 33.0446 155.319 38.641 155.319 45.5511C155.319 52.4613 149.887 58.0577 143.179 58.0577C138.528 58.0577 134.49 55.3646 132.454 51.4059H126.588C128.815 58.7058 135.434 64 143.255 64C152.905 64 160.726 55.9426 160.726 46.0022C160.726 36.0618 152.905 28 143.255 28Z" fill="#00AB84"/>
<path d="M142.056 43.7471H89.61C88.8533 42.3896 87.4293 41.47 85.8013 41.47H81.9118C81.6312 41.47 81.4059 41.7021 81.4059 41.9912V43.156H78.1626C77.8013 43.156 77.5122 43.4581 77.5122 43.826C77.5122 44.1938 77.8055 44.496 78.1626 44.496H81.4059V47.4956H78.1626C77.8013 47.4956 77.5122 47.7977 77.5122 48.1656C77.5122 48.5334 77.8055 48.8356 78.1626 48.8356H81.4059V50.0004C81.4059 50.2894 81.6312 50.5215 81.9118 50.5215H85.8013C87.4336 50.5215 88.8533 49.6063 89.61 48.2444H142.056C143.264 48.2444 144.241 47.2372 144.241 45.9936C144.241 44.7499 143.264 43.7428 142.056 43.7428V43.7471Z" fill="url(#paint0_linear_66_23)"/>
<defs>
<linearGradient id="paint0_linear_66_23" x1="77.5165" y1="45.998" x2="144.246" y2="45.998" gradientUnits="userSpaceOnUse">
<stop stop-color="#0069CB"/>
<stop offset="1" stop-color="#00AB84"/>
</linearGradient>
</defs>
</svg>
