<svg xmlns="http://www.w3.org/2000/svg" width="11" height="11" viewBox="0 0 11 11">
    <path d="M150.587-802.929a3.864 3.864 0 0 0 .377 1.763 4.14 4.14 0 0 0 1.023 1.3l.442.295v-1.347a.535.535 0 0 1 .155-.393.54.54 0 0 1 .4-.156.528.528 0 0 1 .39.156.535.535 0 0 1 .155.393v2.78a.645.645 0 0 1-.188.474.636.636 0 0 1-.47.19h-2.751a.519.519 0 0 1-.39-.161.551.551 0 0 1-.155-.4.535.535 0 0 1 .155-.393.539.539 0 0 1 .4-.157h1.37l-.155-.135a6.069 6.069 0 0 1-1.579-1.92 5.071 5.071 0 0 1-.506-2.286 5.38 5.38 0 0 1 .884-3 5.532 5.532 0 0 1 2.349-2.034.432.432 0 0 1 .434.028.665.665 0 0 1 .28.381.643.643 0 0 1-.033.5.82.82 0 0 1-.346.374 4.183 4.183 0 0 0-1.634 1.559 4.187 4.187 0 0 0-.607 2.189zm8.346-.1a3.6 3.6 0 0 0-.381-1.562 5.367 5.367 0 0 0-.976-1.413l-.426-.379v1.347a.527.527 0 0 1-.16.393.544.544 0 0 1-.4.157.535.535 0 0 1-.4-.161.543.543 0 0 1-.16-.4v-2.771a.645.645 0 0 1 .188-.474.647.647 0 0 1 .48-.19h2.742a.543.543 0 0 1 .4.157.527.527 0 0 1 .16.393.543.543 0 0 1-.16.4.535.535 0 0 1-.4.161h-1.4l.165.168a6.762 6.762 0 0 1 1.53 2.057 5 5 0 0 1 .513 2.116 5.4 5.4 0 0 1-.855 2.971 5.636 5.636 0 0 1-2.3 2.05.465.465 0 0 1-.459 0 .636.636 0 0 1-.312-.39.615.615 0 0 1 .023-.5.807.807 0 0 1 .355-.373 3.973 3.973 0 0 0 1.62-1.551 4.3 4.3 0 0 0 .613-2.206z" transform="translate(-149.26 808.479)" style="fill:#fff"/>
</svg>
