<svg width="50" height="50" viewBox="0 0 50 50" fill="none" xmlns="http://www.w3.org/2000/svg">
    <path d="M25 50c13.807 0 25-11.193 25-25S38.807 0 25 0 0 11.193 0 25s11.193 25 25 25z" fill="#0069CB"/>
    <path d="M22.122 35.527c.3-.309.467-.724.464-1.155a1.501 1.501 0 0 0-.418-1.107l-6.471-6.648h22.407a1.5 1.5 0 0 0 1.122-.459 1.59 1.59 0 0 0 .446-1.155 1.59 1.59 0 0 0-.446-1.155 1.499 1.499 0 0 0-1.122-.459H15.698l6.517-6.707a1.472 1.472 0 0 0 .435-1.12 1.682 1.682 0 0 0-.481-1.131 1.592 1.592 0 0 0-1.122-.436 1.436 1.436 0 0 0-1.076.436l-9.162 9.44c-.155.154-.28.336-.366.536a1.544 1.544 0 0 0-.114.595c-.002.204.037.406.114.595.087.2.21.382.366.536l9.116 9.393a1.464 1.464 0 0 0 1.1.477 1.52 1.52 0 0 0 1.097-.476z" fill="#fff"/>
</svg>
