<svg xmlns="http://www.w3.org/2000/svg" width="18" height="18" viewBox="0 0 18 18">
  <path id="ev_charger_FILL0_wght600_GRAD0_opsz48" d="M145.35-844.469l2.049-3.32h-1.234v-2.49l-2.026,3.32h1.211Zm-2.724-8.016h6.263v-5.407h-6.263Zm0,8.822h6.263v-7.4h-6.263Zm6.263,0h0Zm.922,1.879H141.7a.883.883,0,0,1-.656-.271.917.917,0,0,1-.267-.668v-15.169a1.844,1.844,0,0,1,.544-1.334,1.753,1.753,0,0,1,1.3-.558h6.263a1.771,1.771,0,0,1,1.31.558,1.837,1.837,0,0,1,.548,1.334v7.138h1.711a1.16,1.16,0,0,1,.86.364,1.21,1.21,0,0,1,.356.879v5.26a.955.955,0,0,0,.383.783,1.364,1.364,0,0,0,.872.3,1.612,1.612,0,0,0,.946-.3.92.92,0,0,0,.433-.783v-9.314h-.257a.865.865,0,0,1-.648-.27.925.925,0,0,1-.261-.669v-1.829a.451.451,0,0,1,.1-.289.463.463,0,0,1,.251-.164h.116v-.857a.436.436,0,0,1,.131-.316.428.428,0,0,1,.317-.133.428.428,0,0,1,.317.133.436.436,0,0,1,.131.316v.83h.918v-.83a.438.438,0,0,1,.13-.316.434.434,0,0,1,.325-.133.42.42,0,0,1,.31.133.436.436,0,0,1,.131.316v.857h.116a.463.463,0,0,1,.251.164.451.451,0,0,1,.1.289v1.829a.925.925,0,0,1-.261.669.865.865,0,0,1-.648.27h-.257v9.31a2.241,2.241,0,0,1-.813,1.767,2.787,2.787,0,0,1-1.883.7,2.542,2.542,0,0,1-1.8-.707,2.315,2.315,0,0,1-.754-1.761v-5.262a.1.1,0,0,0,.023.07.093.093,0,0,0,.069.023h-1.711v6.7a.9.9,0,0,1-.274.668A.905.905,0,0,1,149.811-841.784Z" transform="translate(-140.782 859.784)" fill="#fff"/>
</svg>
