<svg width="33" height="33" viewBox="0 0 33 33" fill="none" xmlns="http://www.w3.org/2000/svg">
    <path d="M31.395 15.941a1.31 1.31 0 0 1-.917-.37 1.63 1.63 0 0 1-.5-.941 13.415 13.415 0 0 0-3.93-7.878 13.571 13.571 0 0 0-7.912-3.924 1.576 1.576 0 0 1-.945-.493 1.387 1.387 0 0 1-.372-.974 1.375 1.375 0 0 1 .422-1.02 1.152 1.152 0 0 1 1.03-.325 16.072 16.072 0 0 1 9.808 4.708 16.038 16.038 0 0 1 4.734 9.772 1.135 1.135 0 0 1-.332 1.026 1.475 1.475 0 0 1-1.086.419zm-7.887 0a1.406 1.406 0 0 1-.867-.308 1.584 1.584 0 0 1-.562-.823 5.975 5.975 0 0 0-1.536-2.577 6.01 6.01 0 0 0-2.588-1.53 1.79 1.79 0 0 1-.827-.525 1.274 1.274 0 0 1-.309-.863 1.43 1.43 0 0 1 .473-1.126 1.2 1.2 0 0 1 1.136-.264 8.74 8.74 0 0 1 4.113 2.314 8.965 8.965 0 0 1 2.374 4.1 1.207 1.207 0 0 1-.276 1.126 1.438 1.438 0 0 1-1.128.476h-.003zm7.19 17.06a24.673 24.673 0 0 1-11.034-2.716 37.377 37.377 0 0 1-9.856-7.065 37.128 37.128 0 0 1-7.09-9.814A24.435 24.435 0 0 1-.004 2.419 2.206 2.206 0 0 1 .652.799 2.211 2.211 0 0 1 2.284.14h6.292a2.079 2.079 0 0 1 1.4.5c.403.358.672.844.76 1.376l1.2 5.487c.083.454.075.92-.023 1.37-.091.393-.297.75-.592 1.026l-4.564 4.47a36.53 36.53 0 0 0 5.477 7 30.381 30.381 0 0 0 6.8 5.046l4.35-4.433a2.93 2.93 0 0 1 1.2-.793c.445-.15.925-.169 1.382-.057l5.14 1.146a2.407 2.407 0 0 1 1.37.813c.349.421.534.954.521 1.5v6.116a2.2 2.2 0 0 1-.667 1.63 2.233 2.233 0 0 1-1.629.663l-.003.001z" fill="#0069CB"/>
</svg>
