<svg xmlns="http://www.w3.org/2000/svg" width="14" height="15" viewBox="0 0 14 15">
    <path d="M161.313-811.277h3.281v-5.323h4.813v5.319h3.281v-8.3L167-823.723l-5.687 4.149zm0 1.277a1.282 1.282 0 0 1-.927-.375 1.213 1.213 0 0 1-.386-.9v-8.3a1.239 1.239 0 0 1 .139-.574 1.235 1.235 0 0 1 .386-.447l5.688-4.149a1.41 1.41 0 0 1 .379-.191A1.334 1.334 0 0 1 167-825a1.306 1.306 0 0 1 .409.064 1.381 1.381 0 0 1 .374.191l5.687 4.149a1.235 1.235 0 0 1 .386.447 1.239 1.239 0 0 1 .139.574v8.3a1.213 1.213 0 0 1-.386.9 1.282 1.282 0 0 1-.927.375h-4.594v-5.319h-2.187V-810zm5.687-7.511z" transform="translate(-160 825)" style="fill:#545860"/>
</svg>
