<svg width="29" height="28" viewBox="0 0 29 28" fill="none" xmlns="http://www.w3.org/2000/svg">
    <path d="m7.36 23.822 3.3-5.165H8.674v-3.874L5.41 19.948h1.95v3.874zM2.973 11.353h10.09V2.942H2.972v8.411zm0 13.723h10.09v-11.51H2.972v11.51zm11.576 2.922H1.487a1.448 1.448 0 0 1-1.056-.422A1.4 1.4 0 0 1 0 26.537v-23.6A2.819 2.819 0 0 1 .879.862a2.873 2.873 0 0 1 2.1-.868h10.09a2.9 2.9 0 0 1 2.11.868 2.809 2.809 0 0 1 .882 2.075v11.1h2.756a1.899 1.899 0 0 1 1.386.566 1.85 1.85 0 0 1 .574 1.367v8.182a1.467 1.467 0 0 0 .616 1.218c.4.31.893.477 1.4.472a2.66 2.66 0 0 0 1.524-.472 1.42 1.42 0 0 0 .7-1.218V9.663h-.414a1.419 1.419 0 0 1-1.044-.42 1.41 1.41 0 0 1-.421-1.041V5.357a.687.687 0 0 1 .158-.449.748.748 0 0 1 .4-.255h.188V3.32a.666.666 0 0 1 .21-.492.7.7 0 0 1 .51-.208.7.7 0 0 1 .51.208.668.668 0 0 1 .212.492v1.291h1.479V3.32a.67.67 0 0 1 .209-.492.712.712 0 0 1 .523-.208.69.69 0 0 1 .5.208.668.668 0 0 1 .21.492v1.333h.189c.157.04.298.129.4.255.104.126.16.285.158.449v2.845a1.413 1.413 0 0 1-.421 1.041 1.42 1.42 0 0 1-1.043.42h-.41v14.482a3.438 3.438 0 0 1-1.31 2.748 4.585 4.585 0 0 1-3.033 1.1 4.174 4.174 0 0 1-2.9-1.1 3.543 3.543 0 0 1-1.215-2.74v-8.185a.146.146 0 0 0 .037.109.15.15 0 0 0 .11.037h-2.755v10.418a1.38 1.38 0 0 1-.441 1.039 1.486 1.486 0 0 1-1.064.427z" fill="#545860"/>
</svg>
