<svg width="43" height="43" viewBox="0 0 43 43" fill="none" xmlns="http://www.w3.org/2000/svg">
    <mask id="y4pgfofz2a" style="mask-type:luminance" maskUnits="userSpaceOnUse" x="0" y="0" width="43" height="43">
        <path d="M43 0H0v43h43V0z" fill="#fff"/>
    </mask>
    <g mask="url(#y4pgfofz2a)">
        <path d="M21.5 0a21.5 21.5 0 1 0 0 43c-.178 0-.355-.009-.532-.014v-6.8a3.316 3.316 0 0 1-2.783-3.271v-1.477h-.165a.261.261 0 0 1-.26-.261V30.4a.261.261 0 0 1 .26-.26h1.248v-3.213a.452.452 0 0 1 .9 0v3.208h2.66v-3.208a.452.452 0 0 1 .9 0v3.208h1.248a.261.261 0 0 1 .261.26v.781a.261.261 0 0 1-.261.261h-.164v1.481a3.316 3.316 0 0 1-2.783 3.271v6.8c-.177 0-.354.013-.532.014a21.5 21.5 0 1 0 0-43m5.71 11.751-6.962 10.632a.26.26 0 0 1-.473-.173l.75-6.079h-4.427a.364.364 0 0 1-.3-.564l6.96-10.636a.26.26 0 0 1 .473.173l-.75 6.079h4.427a.364.364 0 0 1 .3.564" fill="#EF3346" fill-opacity=".2"/>
    </g>
</svg>
