<svg xmlns="http://www.w3.org/2000/svg" width="17" height="22" viewBox="0 0 17 22">
    <path d="M233.757-812.218a1.087 1.087 0 0 1-.822-.346 1.205 1.205 0 0 1-.329-.864v-16.653l-1.807 1.9a1.078 1.078 0 0 1-.824.37 1.109 1.109 0 0 1-.807-.37 1.193 1.193 0 0 1-.344-.849 1.192 1.192 0 0 1 .344-.849l3.765-3.961a1.227 1.227 0 0 1 .4-.292 1.07 1.07 0 0 1 .426-.087 1.07 1.07 0 0 1 .426.087 1.072 1.072 0 0 1 .381.292l3.765 3.961a1.224 1.224 0 0 1 .352.849 1.136 1.136 0 0 1-.352.849 1.079 1.079 0 0 1-.807.361 1.079 1.079 0 0 1-.807-.361l-1.807-1.9v9.106a7.788 7.788 0 0 1 1.97-1.452 6.025 6.025 0 0 1 2.8-.581 6.8 6.8 0 0 1 1.055.1q.623.1 1.142.218l-1.791-1.884a1.164 1.164 0 0 1-.36-.849 1.164 1.164 0 0 1 .36-.849 1.078 1.078 0 0 1 .807-.361 1.078 1.078 0 0 1 .807.361l3.782 3.961a1.468 1.468 0 0 1 .261.409 1.161 1.161 0 0 1 .083.44 1.21 1.21 0 0 1-.083.457 1.253 1.253 0 0 1-.261.392l-3.782 3.961a1.058 1.058 0 0 1-.807.379 1.058 1.058 0 0 1-.807-.379 1.154 1.154 0 0 1-.36-.84 1.212 1.212 0 0 1 .36-.858l1.824-1.9a7.657 7.657 0 0 0-1.046-.236 7.832 7.832 0 0 0-1.266-.1 4.819 4.819 0 0 0-2.863.979 5.029 5.029 0 0 0-1.825 2.766v3.415a1.205 1.205 0 0 1-.329.864 1.087 1.087 0 0 1-.824.344z" transform="translate(-228.825 834.218)" style="fill:#fff"/>
</svg>
