<svg width="33" height="30" viewBox="0 0 33 30" fill="none" xmlns="http://www.w3.org/2000/svg">
    <path d="M16.496 23.795a6.662 6.662 0 0 0 4.916-2 6.726 6.726 0 0 0 1.991-4.94 6.71 6.71 0 0 0-1.99-4.96 6.701 6.701 0 0 0-4.917-1.98 6.679 6.679 0 0 0-4.937 1.98 6.745 6.745 0 0 0-1.97 4.96 6.764 6.764 0 0 0 1.97 4.94 6.643 6.643 0 0 0 4.937 2zm-13.727 6.2a2.654 2.654 0 0 1-1.945-.827 2.678 2.678 0 0 1-.823-1.954V6.448a2.714 2.714 0 0 1 .823-1.94 2.618 2.618 0 0 1 1.945-.851h5.827L10.831.962c.238-.323.56-.576.93-.731a3.05 3.05 0 0 1 1.192-.233h7.1c.406-.002.808.077 1.183.233.37.155.691.408.93.731L24.4 3.657h5.827a2.653 2.653 0 0 1 1.931.851 2.678 2.678 0 0 1 .847 1.94v20.768a2.645 2.645 0 0 1-.847 1.954 2.687 2.687 0 0 1-1.93.827l-27.459-.002z" fill="#FF9800"/>
</svg>
