<svg width="14" height="15" viewBox="0 0 14 15" fill="none" xmlns="http://www.w3.org/2000/svg">
    <path d="M1.313 13.723h3.281V8.4h4.813v5.319h3.281v-8.3L7 1.277 1.313 5.426v8.297zm0 1.277a1.282 1.282 0 0 1-.927-.375 1.212 1.212 0 0 1-.386-.9v-8.3c0-.2.047-.397.14-.574.09-.178.222-.331.385-.447L6.213.255a1.334 1.334 0 0 1 1.57 0l5.687 4.149c.163.116.295.269.386.447.092.177.14.374.14.574v8.3a1.213 1.213 0 0 1-.387.9 1.283 1.283 0 0 1-.927.375H8.088V9.681H5.901V15H1.313z" fill="#00AB84"/>
</svg>
