<svg xmlns="http://www.w3.org/2000/svg" width="19" height="20" viewBox="0 0 19 20">
    <g data-name="Group 837">
        <g data-name="Group 841">
            <path data-name="Path 413" d="M9.395 20c-.368 0-.785 0-1.375-.008h-.294v-1.116a9.5 9.5 0 1 1 3.574-.006v1.116l-.525.005c-.542.009-.924.009-1.38.009m-1.075-.6c1.069.009 1.525.006 2.39 0v-1.032l.249-.041a8.905 8.905 0 1 0-2.889 0l.25.04z" style="fill:#545860"/>
            <path data-name="Path 414" d="M70.316 95.485a2.86 2.86 0 1 1 2.837-2.86 2.852 2.852 0 0 1-2.837 2.86m0-5.42a2.56 2.56 0 1 0 2.539 2.56 2.553 2.553 0 0 0-2.539-2.56m0 3.519a.959.959 0 1 1 .951-.959.956.956 0 0 1-.951.959m0-1.618a.659.659 0 1 0 .653.659.657.657 0 0 0-.653-.659" transform="translate(-64.917 -86.366)" style="fill:#545860"/>
            <path data-name="Path 415" d="M178.767 327.551a2.86 2.86 0 1 1 2.837-2.86 2.852 2.852 0 0 1-2.837 2.86m0-5.42a2.56 2.56 0 1 0 2.539 2.56 2.553 2.553 0 0 0-2.539-2.56m0 3.519a.959.959 0 1 1 .951-.959.956.956 0 0 1-.951.959m0-1.618a.659.659 0 1 0 .654.659.657.657 0 0 0-.654-.659" transform="translate(-169.267 -309.667)" style="fill:#545860"/>
            <path data-name="Path 416" d="M288 95.485a2.86 2.86 0 1 1 2.837-2.86 2.852 2.852 0 0 1-2.837 2.86m0-5.42a2.56 2.56 0 1 0 2.539 2.56 2.553 2.553 0 0 0-2.539-2.56m0 3.519a.959.959 0 1 1 .951-.959.956.956 0 0 1-.951.959m0-1.618a.659.659 0 1 0 .654.659.657.657 0 0 0-.654-.659" transform="translate(-274.37 -86.366)" style="fill:#545860"/>
            <path data-name="Path 417" d="M352.2 278a1.946 1.946 0 1 1 1.93-1.946A1.94 1.94 0 0 1 352.2 278m0-3.591a1.645 1.645 0 1 0 1.632 1.645 1.641 1.641 0 0 0-1.632-1.654m0 2.324a.678.678 0 1 1 .673-.678.676.676 0 0 1-.673.678m0-1.056a.378.378 0 1 0 .375.378.377.377 0 0 0-.375-.378" transform="translate(-337.007 -263.712)" style="fill:#545860"/>
            <path data-name="Path 418" d="M52.09 278a1.946 1.946 0 1 1 1.93-1.946A1.94 1.94 0 0 1 52.09 278m0-3.591a1.645 1.645 0 1 0 1.632 1.645 1.641 1.641 0 0 0-1.632-1.654m0 2.324a.678.678 0 1 1 .673-.678.676.676 0 0 1-.673.678m0-1.056a.378.378 0 1 0 .375.378.377.377 0 0 0-.375-.378" transform="translate(-48.255 -263.712)" style="fill:#545860"/>
        </g>
    </g>
</svg>
