<svg width="33" height="34" viewBox="0 0 33 34" fill="none" xmlns="http://www.w3.org/2000/svg">
    <path d="M3.072 33.457a2.95 2.95 0 0 1-2.157-.914 2.95 2.95 0 0 1-.914-2.157V3.538a2.967 2.967 0 0 1 .914-2.162A2.941 2.941 0 0 1 3.072.457h21.4a2.95 2.95 0 0 1 1.215.258c.37.16.706.389.993.672l5.39 5.389c.282.287.51.623.671.993.171.382.26.796.258 1.215v21.4a2.943 2.943 0 0 1-.919 2.157 2.968 2.968 0 0 1-2.162.914l-26.846.002zm13.413-6a4.544 4.544 0 0 0 3.323-1.364 4.493 4.493 0 0 0 1.371-3.317 4.547 4.547 0 0 0-1.364-3.323 4.493 4.493 0 0 0-3.313-1.374 4.545 4.545 0 0 0-3.323 1.364 4.493 4.493 0 0 0-1.375 3.313 4.545 4.545 0 0 0 1.364 3.323 4.492 4.492 0 0 0 3.317 1.378zM6.996 12.376H20.06a1.485 1.485 0 0 0 1.093-.443 1.486 1.486 0 0 0 .443-1.093V7.466a1.485 1.485 0 0 0-.443-1.093 1.485 1.485 0 0 0-1.093-.443H6.996a1.485 1.485 0 0 0-1.093.443 1.484 1.484 0 0 0-.443 1.093v3.374a1.485 1.485 0 0 0 .443 1.093 1.485 1.485 0 0 0 1.093.443z" fill="#EF3346"/>
</svg>
