<svg width="15" height="15" viewBox="0 0 15 15" fill="none" xmlns="http://www.w3.org/2000/svg">
    <path d="M9.833 14.937 4.77 13.125l-3.73 1.5a.66.66 0 0 1-.7-.021.693.693 0 0 1-.343-.632V2.216a.792.792 0 0 1 .156-.484.959.959 0 0 1 .406-.316L4.352.068a1.429 1.429 0 0 1 .834 0l5.063 1.791 3.708-1.5a.708.708 0 0 1 .7.032.668.668 0 0 1 .344.621v11.9a.569.569 0 0 1-.156.4.976.976 0 0 1-.385.253l-3.792 1.369a1.43 1.43 0 0 1-.835.003zm-.292-1.433V2.865L5.458 1.474v10.639l4.083 1.391zm1.25 0 2.958-.99V1.728L10.79 2.866v10.638zm-9.542-.253 2.958-1.138V1.474l-2.958.99v10.787z" fill="#545860"/>
</svg>
