<svg xmlns="http://www.w3.org/2000/svg" width="20" height="20" viewBox="0 0 20 20">
    <path d="m74.411-882.848-2.106-2.106a.909.909 0 0 0-.669-.272.984.984 0 0 0-.7.3.953.953 0 0 0-.272.681.885.885 0 0 0 .285.667l2.78 2.8a.942.942 0 0 0 .68.285.967.967 0 0 0 .688-.285l5.6-5.617a.922.922 0 0 0 .31-.686.956.956 0 0 0-.31-.7.962.962 0 0 0-.7-.26 1 1 0 0 0-.691.284zm1.453 8.152a9.753 9.753 0 0 1-3.885-.782 10.067 10.067 0 0 1-3.185-2.144 10.073 10.073 0 0 1-2.144-3.183 9.738 9.738 0 0 1-.782-3.883 9.812 9.812 0 0 1 .782-3.909 9.95 9.95 0 0 1 2.141-3.173 10.226 10.226 0 0 1 3.182-2.138 9.684 9.684 0 0 1 3.885-.788 9.772 9.772 0 0 1 3.912.787 10.1 10.1 0 0 1 3.174 2.135 10.089 10.089 0 0 1 2.137 3.172 9.764 9.764 0 0 1 .787 3.913 9.69 9.69 0 0 1-.788 3.887 10.231 10.231 0 0 1-2.138 3.183 9.952 9.952 0 0 1-3.171 2.142 9.8 9.8 0 0 1-3.907.777z" transform="translate(-65.869 894.696)" style="fill:#00ab84"/>
</svg>
