<svg xmlns="http://www.w3.org/2000/svg" width="19" height="26" viewBox="0 0 19 26">
    <g data-name="Group 831">
        <g data-name="Group 840">
            <path data-name="Path 379" d="M15.132 16.3a1.5 1.5 0 0 1-.179-.051l-.051-.018h-2.147A8.445 8.445 0 0 0 9.552 0a8.445 8.445 0 0 0-3.189 16.234h-2.3a4.9 4.9 0 0 0 .509 9.722l.769.006c3.69.028 4.164.032 9.029.035a4.822 4.822 0 0 0 4.616-4.585 4.929 4.929 0 0 0-3.854-5.112M1.818 8.435a7.734 7.734 0 1 1 7.734 7.791 7.771 7.771 0 0 1-7.734-7.791m16.533 12.938a4.171 4.171 0 0 1-3.974 3.981c-4.866 0-5.339-.007-9.027-.035l-.768-.006A4.3 4.3 0 0 1 .67 21.59a4.26 4.26 0 0 1 3.51-4.719H14.8a1.971 1.971 0 0 0 .2.055 4.282 4.282 0 0 1 3.351 4.447" transform="translate(0 .001)" style="fill:#d1d1d1"/>
            <path data-name="Path 380" d="M319.121 483.613a1.207 1.207 0 1 0 1.212 1.207 1.211 1.211 0 0 0-1.212-1.207m0 2.089a.882.882 0 1 1 .886-.882.885.885 0 0 1-.886.882" transform="translate(-304.973 -463.78)" style="fill:#d1d1d1"/>
            <path data-name="Path 381" d="M262.3 424.328a3.661 3.661 0 1 0 3.676 3.661 3.673 3.673 0 0 0-3.676-3.661m0 7a3.336 3.336 0 1 1 3.35-3.336 3.347 3.347 0 0 1-3.35 3.336" transform="translate(-248.234 -406.949)" style="fill:#d1d1d1"/>
            <path data-name="Path 382" d="M34.706 424.328a3.661 3.661 0 1 0 3.676 3.661 3.673 3.673 0 0 0-3.676-3.661m0 7a3.336 3.336 0 1 1 3.35-3.336 3.347 3.347 0 0 1-3.35 3.336" transform="translate(-29.74 -406.949)" style="fill:#d1d1d1"/>
            <path data-name="Path 383" d="M91.524 483.613a1.207 1.207 0 1 0 1.212 1.207 1.211 1.211 0 0 0-1.212-1.207m0 2.089a.882.882 0 1 1 .886-.882.885.885 0 0 1-.886.882" transform="translate(-86.637 -463.78)" style="fill:#d1d1d1"/>
            <path data-name="Path 384" d="M260.482 86.615a2.331 2.331 0 1 0-2.34-2.331 2.338 2.338 0 0 0 2.34 2.331m0-4.337a2.006 2.006 0 1 1-2.014 2.006 2.013 2.013 0 0 1 2.014-2.006" transform="translate(-247.673 -78.56)" style="fill:#d1d1d1"/>
            <path data-name="Path 385" d="M298.36 122.863a.695.695 0 1 0-.7-.694.7.7 0 0 0 .7.694m0-1.064a.37.37 0 1 1-.371.37.371.371 0 0 1 .371-.37" transform="translate(-285.536 -116.483)" style="fill:#d1d1d1"/>
            <path data-name="Path 386" d="M218.729 294.412a.7.7 0 1 0-.7.695.7.7 0 0 0 .7-.695m-1.069 0a.371.371 0 1 1 .371.37.371.371 0 0 1-.371-.37" transform="translate(-208.48 -281.649)" style="fill:#d1d1d1"/>
            <path data-name="Path 387" d="M182.493 256.527a2.34 2.34 0 1 0-2.34 2.331 2.338 2.338 0 0 0 2.34-2.331m-4.354 0a2.014 2.014 0 1 1 2.014 2.006 2.012 2.012 0 0 1-2.014-2.006" transform="translate(-170.602 -243.764)" style="fill:#d1d1d1"/>
            <path data-name="Path 388" d="M143.064 122.863a.695.695 0 1 0-.7-.694.7.7 0 0 0 .7.694m0-1.064a.37.37 0 1 1-.371.37.371.371 0 0 1 .371-.37" transform="translate(-136.567 -116.483)" style="fill:#d1d1d1"/>
            <path data-name="Path 389" d="M105.186 86.615a2.331 2.331 0 1 0-2.34-2.331 2.338 2.338 0 0 0 2.34 2.331m0-4.337a2.006 2.006 0 1 1-2.014 2.006 2.013 2.013 0 0 1 2.014-2.006" transform="translate(-98.675 -78.56)" style="fill:#d1d1d1"/>
            <path data-name="Path 390" d="M88.048 220.477a1.662 1.662 0 1 0 1.669 1.662 1.667 1.667 0 0 0-1.669-1.662m0 3a1.338 1.338 0 1 1 1.343-1.338 1.342 1.342 0 0 1-1.343 1.338" transform="translate(-82.868 -211.424)" style="fill:#d1d1d1"/>
            <path data-name="Path 391" d="M113.3 246.824a.571.571 0 1 0 .574.571.573.573 0 0 0-.574-.571m0 .818a.247.247 0 1 1 .248-.247.248.248 0 0 1-.248.247" transform="translate(-108.129 -236.682)" style="fill:#d1d1d1"/>
            <path data-name="Path 392" d="M333.828 246.818a.572.572 0 0 0-.03 1.142h.026a.572.572 0 0 0 .034-1.142zm.248.584a.262.262 0 0 1-.261.234.247.247 0 1 1 .261-.234" transform="translate(-319.673 -236.676)" style="fill:#d1d1d1"/>
            <path data-name="Path 393" d="M306.911 222.053a1.666 1.666 0 0 0 1.58 1.747h.088a1.663 1.663 0 1 0-1.667-1.749m3.008.156a1.343 1.343 0 0 1-2.338.825 1.326 1.326 0 0 1-.344-.965 1.345 1.345 0 0 1 1.344-1.268h.068a1.341 1.341 0 0 1 1.27 1.405" transform="translate(-294.436 -211.424)" style="fill:#d1d1d1"/>
        </g>
    </g>
</svg>
