<svg width="50" height="50" viewBox="0 0 50 50" fill="none" xmlns="http://www.w3.org/2000/svg">
    <path d="m21.332 30.228-5.753-5.754a2.045 2.045 0 0 0-1.5-.613 2.186 2.186 0 0 0-1.576.674 2.091 2.091 0 0 0-.613 1.516 2.019 2.019 0 0 0 .628 1.5l7.334 7.4a2.04 2.04 0 0 0 1.48.628 2.066 2.066 0 0 0 1.488-.628L37.357 20.4a2.118 2.118 0 0 0 .69-1.557 2.154 2.154 0 0 0-.69-1.569 2.18 2.18 0 0 0-1.6-.582 2.232 2.232 0 0 0-1.545.644l-12.88 12.892zm3.664 19.773a24.272 24.272 0 0 1-9.7-1.962 25.276 25.276 0 0 1-7.966-5.368 25.282 25.282 0 0 1-5.368-7.964A24.258 24.258 0 0 1 0 25.007a24.425 24.425 0 0 1 1.962-9.76A24.939 24.939 0 0 1 7.33 7.319a25.6 25.6 0 0 1 7.962-5.345 24.2 24.2 0 0 1 9.7-1.969 24.381 24.381 0 0 1 9.763 1.968 25.243 25.243 0 0 1 7.936 5.342 25.236 25.236 0 0 1 5.343 7.934 24.374 24.374 0 0 1 1.968 9.764 24.2 24.2 0 0 1-1.969 9.7 25.606 25.606 0 0 1-5.345 7.964 24.941 24.941 0 0 1-7.934 5.366 24.411 24.411 0 0 1-9.757 1.958z" fill="#00AB84"/>
</svg>
