<svg xmlns="http://www.w3.org/2000/svg" width="15" height="15" viewBox="0 0 15 15">
    <path d="m129.833-821.063-5.062-1.812-3.729 1.5a.659.659 0 0 1-.7-.021.693.693 0 0 1-.344-.632v-11.756a.792.792 0 0 1 .156-.484.959.959 0 0 1 .406-.316l3.792-1.348a1.429 1.429 0 0 1 .417-.063 1.429 1.429 0 0 1 .417.063l5.063 1.791 3.708-1.5a.708.708 0 0 1 .7.032.669.669 0 0 1 .344.621v11.9a.569.569 0 0 1-.156.4.976.976 0 0 1-.385.253l-3.792 1.369a1.429 1.429 0 0 1-.417.063 1.43 1.43 0 0 1-.418-.06zm-.292-1.433v-10.639l-4.083-1.391v10.639zm1.25 0 2.958-.99v-10.786l-2.958 1.138zm-9.542-.253 2.958-1.138v-10.639l-2.958.99zm9.542-10.386zm-6.583-1.391z" transform="translate(-120 836)" style="fill:#00ab84"/>
</svg>
