<svg xmlns="http://www.w3.org/2000/svg" width="24" height="30" viewBox="0 0 24 30">
    <path d="M150.967-861.39a1.206 1.206 0 0 1-.9-.358 1.236 1.236 0 0 1-.352-.9 1.235 1.235 0 0 1 .352-.9 1.2 1.2 0 0 1 .894-.358h1.883v-11.046a9.41 9.41 0 0 1 1.833-5.648 7.875 7.875 0 0 1 4.853-3.191v-1.022a1.985 1.985 0 0 1 .641-1.517 2.178 2.178 0 0 1 1.541-.6 2.178 2.178 0 0 1 1.541.6 1.985 1.985 0 0 1 .641 1.517v1.022a7.951 7.951 0 0 1 4.879 3.191 9.348 9.348 0 0 1 1.851 5.648v11.046h1.847a1.2 1.2 0 0 1 .889.358 1.226 1.226 0 0 1 .357.9 1.227 1.227 0 0 1-.357.9 1.205 1.205 0 0 1-.889.358zm10.75 4.455a2.87 2.87 0 0 1-2.086-.886 2.9 2.9 0 0 1-.893-2.137h5.962a2.929 2.929 0 0 1-.875 2.138 2.853 2.853 0 0 1-2.108.885z" transform="translate(-149.717 886.935)" style="fill:#ff9800"/>
</svg>
