<svg xmlns="http://www.w3.org/2000/svg" width="17.999" height="17.999" viewBox="0 0 17.999 17.999">
    <path d="M115.7-828.219a1.609 1.609 0 0 1-1.177-.5 1.609 1.609 0 0 1-.5-1.177v-14.643a1.617 1.617 0 0 1 .5-1.181 1.606 1.606 0 0 1 1.177-.5h14.64a1.614 1.614 0 0 1 1.181.5 1.615 1.615 0 0 1 .5 1.181v14.643a1.606 1.606 0 0 1-.5 1.177 1.617 1.617 0 0 1-1.181.5zm2.079-3.953h10.51a.378.378 0 0 0 .368-.224.438.438 0 0 0-.032-.448l-2.858-3.835a.43.43 0 0 0-.337-.168.4.4 0 0 0-.335.168l-2.909 3.751-1.944-2.67a.423.423 0 0 0-.343-.168.425.425 0 0 0-.335.168l-2.1 2.753a.41.41 0 0 0-.056.448.378.378 0 0 0 .367.224z" transform="translate(-114.022 846.218)" style="fill:#fff"/>
</svg>
