<svg xmlns="http://www.w3.org/2000/svg" width="15" height="15" viewBox="0 0 15 15">
    <path d="m72.276-885.81-1.576-1.579a.682.682 0 0 0-.5-.2.738.738 0 0 0-.528.222.715.715 0 0 0-.2.511.664.664 0 0 0 .214.5l2.085 2.1a.707.707 0 0 0 .51.214.726.726 0 0 0 .516-.214l4.2-4.213a.692.692 0 0 0 .232-.515.717.717 0 0 0-.232-.523.723.723 0 0 0-.529-.195.754.754 0 0 0-.519.213zm1.09 6.114a7.315 7.315 0 0 1-2.914-.586 7.552 7.552 0 0 1-2.388-1.608 7.555 7.555 0 0 1-1.608-2.387 7.3 7.3 0 0 1-.586-2.912 7.359 7.359 0 0 1 .586-2.932 7.463 7.463 0 0 1 1.606-2.38 7.67 7.67 0 0 1 2.386-1.6 7.264 7.264 0 0 1 2.914-.591 7.329 7.329 0 0 1 2.934.59 7.57 7.57 0 0 1 2.38 1.6 7.566 7.566 0 0 1 1.6 2.379 7.324 7.324 0 0 1 .59 2.935 7.268 7.268 0 0 1-.591 2.915 7.673 7.673 0 0 1-1.6 2.387 7.464 7.464 0 0 1-2.379 1.606 7.35 7.35 0 0 1-2.931.58zm0-1.434a5.842 5.842 0 0 0 4.3-1.769 5.849 5.849 0 0 0 1.766-4.292 5.847 5.847 0 0 0-1.766-4.3 5.853 5.853 0 0 0-4.3-1.766 5.844 5.844 0 0 0-4.286 1.766 5.846 5.846 0 0 0-1.77 4.3 5.84 5.84 0 0 0 1.769 4.286 5.842 5.842 0 0 0 4.285 1.775zm-.002-6.061z" transform="translate(-65.869 894.696)" style="fill:#0069cb"/>
</svg>
