<svg width="192" height="36" viewBox="0 0 192 36" fill="none" xmlns="http://www.w3.org/2000/svg">
    <path d="M17.356 35.989c-2.41 0-4.667-.456-6.776-1.367a16.947 16.947 0 0 1-5.543-3.849 18.032 18.032 0 0 1-3.71-5.736C.441 22.869 0 20.527 0 18.008c0-2.518.45-4.909 1.352-7.076a17.861 17.861 0 0 1 3.762-5.71 17.19 17.19 0 0 1 5.64-3.823C12.905.483 15.235.028 17.744.028c2.797 0 5.369.539 7.715 1.616 2.347 1.077 4.293 2.592 5.832 4.545l-4.438 4.572a10.695 10.695 0 0 0-3.953-3.28c-1.577-.762-3.311-1.143-5.207-1.143-2.155 0-4.06.49-5.713 1.467-1.658.977-2.95 2.334-3.881 4.073-.931 1.738-1.399 3.766-1.399 6.082 0 2.317.46 4.362 1.373 6.135.918 1.774 2.168 3.153 3.762 4.147 1.594.994 3.414 1.489 5.471 1.489s3.936-.403 5.45-1.217c1.509-.81 2.67-2.002 3.473-3.578.803-1.572 1.207-3.503 1.207-5.785l4.293 3.03-14.801-.148v-5.86h17.262v.946c0 4.174-.722 7.66-2.168 10.457-1.445 2.799-3.43 4.9-5.955 6.306-2.525 1.41-5.424 2.111-8.701 2.111l-.009-.004zM39.108 20.888v-5.264h12.11c1.608 0 2.853-.42 3.737-1.265.885-.845 1.327-2.01 1.327-3.503 0-1.358-.442-2.492-1.327-3.403-.884-.91-2.13-1.366-3.736-1.366h-12.11V.574h12.688c2.185 0 4.106.438 5.76 1.318 1.654.876 2.941 2.08 3.855 3.6.919 1.523 1.373 3.28 1.373 5.263 0 1.984-.459 3.832-1.373 5.338-.913 1.506-2.21 2.68-3.88 3.525-1.671.845-3.618 1.266-5.833 1.266H39.11v.004zm17.943 14.604L45.867 20.393l6.028-1.935 13.114 17.038h-7.954l-.004-.004zM96.574 6.534V.574h24.961v5.96h-24.96zm0 28.958v-5.96h25.259v5.96H96.574z" fill="#0069CB"/>
    <path d="m170.47 14.928 21.531 20.017V.026h-5.952v20.021L164.519.027v9.029l5.951 5.872zM164.519 34.945h5.951V23.686l-5.951-5.872v17.13z" fill="#00AB84"/>
    <path d="M73.33 6.534h19.368V.574H67.737v34.918h25.258v-5.96H73.331V6.534z" fill="#0069CB"/>
    <path d="M143.255 0c-7.821 0-14.44 5.294-16.667 12.594h5.445c1.862-4.44 6.151-7.55 11.146-7.55 6.703 0 12.14 5.597 12.14 12.507 0 6.91-5.432 12.507-12.14 12.507-4.651 0-8.689-2.693-10.725-6.652h-5.866c2.227 7.3 8.846 12.594 16.667 12.594 9.65 0 17.471-8.057 17.471-17.998 0-9.94-7.821-18.002-17.471-18.002z" fill="#00AB84"/>
    <path d="M142.056 15.747H89.61c-.757-1.357-2.18-2.277-3.809-2.277h-3.89a.512.512 0 0 0-.505.521v1.165h-3.243a.66.66 0 0 0-.65.67c0 .368.292.67.65.67h3.243v3h-3.243a.66.66 0 0 0-.65.67c0 .367.292.67.65.67h3.243V22c0 .29.225.521.506.521h3.89c1.632 0 3.051-.915 3.808-2.277h52.446c1.208 0 2.185-1.007 2.185-2.25 0-1.244-.977-2.251-2.185-2.251v.004z" fill="url(#t8uu040j4a)"/>
    <defs>
        <linearGradient id="t8uu040j4a" x1="77.516" y1="17.998" x2="144.246" y2="17.998" gradientUnits="userSpaceOnUse">
            <stop stop-color="#0069CB"/>
            <stop offset="1" stop-color="#00AB84"/>
        </linearGradient>
    </defs>
</svg>
