<svg width="25" height="25" viewBox="0 0 25 25" fill="none" xmlns="http://www.w3.org/2000/svg">
<path d="M8.53846 13.4887L11.4615 16.3064C11.6667 16.5041 11.765 16.7348 11.7564 16.9985C11.7479 17.2621 11.6496 17.4928 11.4615 17.6905C11.2564 17.8883 11.0128 17.9913 10.7308 17.9995C10.4487 18.0077 10.2051 17.913 10 17.7153L5.30769 13.1921C5.10256 12.9943 5 12.7636 5 12.5C5 12.2364 5.10256 12.0057 5.30769 11.8079L10 7.28474C10.2051 7.087 10.4487 6.99226 10.7308 7.00049C11.0128 7.00873 11.2564 7.11172 11.4615 7.30946C11.6496 7.50719 11.7479 7.73788 11.7564 8.00153C11.765 8.26517 11.6667 8.49587 11.4615 8.6936L8.53846 11.5113H19.9744C20.265 11.5113 20.5085 11.6061 20.7051 11.7956C20.9017 11.9851 21 12.2199 21 12.5C21 12.7801 20.9017 13.0149 20.7051 13.2044C20.5085 13.3939 20.265 13.4887 19.9744 13.4887H8.53846Z" fill="#00AB84"/>
</svg>
