<svg xmlns="http://www.w3.org/2000/svg" width="32" height="30" viewBox="0 0 32 30">
    <path d="M96.3-863.491a1.205 1.205 0 0 1-1.374-.293 1.158 1.158 0 0 1-.3-1.352l5.042-13.879a2.425 2.425 0 0 1 1.868-1.654 2.449 2.449 0 0 1 2.386.678l7.464 7.294a2.345 2.345 0 0 1 .725 2.355 2.415 2.415 0 0 1-1.675 1.844L96.3-863.491zm15.292-13.729a.93.93 0 0 1-.283-.689.93.93 0 0 1 .283-.689l8.277-8.162a4.388 4.388 0 0 1 3.17-1.25 4.291 4.291 0 0 1 3.179 1.213l.02.019a.959.959 0 0 1 .288.656.91.91 0 0 1-.307.693.985.985 0 0 1-.707.279.939.939 0 0 1-.7-.288l-.067-.066a2.408 2.408 0 0 0-1.67-.724 2.259 2.259 0 0 0-1.7.724l-8.428 8.32a.91.91 0 0 1-.66.279.979.979 0 0 1-.698-.315zm-6.217-6a.94.94 0 0 1-.288-.684.924.924 0 0 1 .288-.693l.474-.477a2.344 2.344 0 0 0 .768-1.886 2.754 2.754 0 0 0-.85-1.845l-.445-.43a.909.909 0 0 1-.288-.656.943.943 0 0 1 .316-.693.945.945 0 0 1 .7-.275.976.976 0 0 1 .7.284l.332.327a4.533 4.533 0 0 1 1.378 3.367 4.472 4.472 0 0 1-1.334 3.3l-.407.4a.931.931 0 0 1-.66.279.97.97 0 0 1-.687-.314zm3.165 2.975a.925.925 0 0 1-.283-.684.924.924 0 0 1 .283-.684l4.973-4.91a2.377 2.377 0 0 0 .7-1.812 2.5 2.5 0 0 0-.738-1.812l-1.649-1.628a.887.887 0 0 1-.283-.651.956.956 0 0 1 .321-.689.949.949 0 0 1 .693-.279.949.949 0 0 1 .693.279l1.7 1.665a4.417 4.417 0 0 1 1.247 3.115 4.059 4.059 0 0 1-1.209 3.106l-5.1 5.022a.905.905 0 0 1-.655.279.974.974 0 0 1-.696-.313zm6.188 6.146a.924.924 0 0 1-.283-.684.925.925 0 0 1 .283-.684l1.045-1.032a4.644 4.644 0 0 1 3.283-1.39 4.378 4.378 0 0 1 3.283 1.315l1.27 1.254a.912.912 0 0 1 .283.656.951.951 0 0 1-.321.684.949.949 0 0 1-.693.279.949.949 0 0 1-.693-.279l-1.285-1.25a2.584 2.584 0 0 0-1.817-.859 2.584 2.584 0 0 0-1.817.859l-1.187 1.172a.935.935 0 0 1-.664.279.974.974 0 0 1-.693-.317z" transform="translate(-94.522 893.391)" style="fill:#00ab84"/>
</svg>
