<svg width="31" height="39" viewBox="0 0 31 39" fill="none" xmlns="http://www.w3.org/2000/svg">
    <path d="M1.614 33.21a1.55 1.55 0 0 1-1.16-.465A1.611 1.611 0 0 1 0 31.57a1.612 1.612 0 0 1 .455-1.175 1.546 1.546 0 0 1 1.154-.465H4.04V15.571c-.02-2.638.81-5.213 2.367-7.343a10.168 10.168 0 0 1 6.268-4.148V2.751a2.586 2.586 0 0 1 .827-1.972 2.8 2.8 0 0 1 1.99-.778 2.8 2.8 0 0 1 1.99.778 2.589 2.589 0 0 1 .827 1.972V4.08a10.265 10.265 0 0 1 6.3 4.148A12.2 12.2 0 0 1 27 15.571V29.93h2.386a1.551 1.551 0 0 1 1.148.465 1.6 1.6 0 0 1 .46 1.175 1.6 1.6 0 0 1-.986 1.527c-.197.08-.41.118-.622.113H1.614zM15.5 39.001a3.7 3.7 0 0 1-2.694-1.152 3.781 3.781 0 0 1-1.154-2.778h7.7a3.822 3.822 0 0 1-1.13 2.779 3.673 3.673 0 0 1-2.722 1.151z" fill="#FF9800"/>
    <path d="M28.5 5a2.5 2.5 0 1 0 0-5 2.5 2.5 0 0 0 0 5z" fill="#EF3346"/>
</svg>
