<svg xmlns="http://www.w3.org/2000/svg" width="20" height="20" viewBox="0 0 20 20">
    <path data-name="Subtraction 2" d="M-1227-1123a10.011 10.011 0 0 1-10-10 10.011 10.011 0 0 1 10-10 10.011 10.011 0 0 1 10 10 10.011 10.011 0 0 1-10 10zm-4.21-6.007a.494.494 0 0 0-.364.142.486.486 0 0 0-.141.357.5.5 0 0 0 .141.362.476.476 0 0 0 .355.147h2.5a.581.581 0 0 0 .427-.173.589.589 0 0 0 .171-.43v-2.527a.484.484 0 0 0-.141-.358.481.481 0 0 0-.355-.142.5.5 0 0 0-.364.142.484.484 0 0 0-.141.358v1.224l-.4-.268a3.765 3.765 0 0 1-.93-1.178 3.523 3.523 0 0 1-.343-1.6 3.825 3.825 0 0 1 .553-2 3.818 3.818 0 0 1 1.485-1.417.749.749 0 0 0 .315-.34.587.587 0 0 0 .03-.45.6.6 0 0 0-.255-.346.4.4 0 0 0-.216-.067.439.439 0 0 0-.179.041 5.063 5.063 0 0 0-2.136 1.849 4.916 4.916 0 0 0-.8 2.732 4.626 4.626 0 0 0 .46 2.078 5.551 5.551 0 0 0 1.436 1.746l.141.122zm6.383-7.087.385.343a4.89 4.89 0 0 1 .887 1.284 3.282 3.282 0 0 1 .347 1.419 3.919 3.919 0 0 1-.541 2.008 3.635 3.635 0 0 1-1.473 1.41.737.737 0 0 0-.323.339.56.56 0 0 0-.021.45.582.582 0 0 0 .283.355.444.444 0 0 0 .212.057.439.439 0 0 0 .205-.054 5.147 5.147 0 0 0 2.087-1.864 4.939 4.939 0 0 0 .777-2.7 4.56 4.56 0 0 0-.466-1.923 6.169 6.169 0 0 0-1.391-1.87l-.149-.152h1.27a.487.487 0 0 0 .359-.147.5.5 0 0 0 .146-.362.479.479 0 0 0-.146-.357.492.492 0 0 0-.359-.142h-2.493a.588.588 0 0 0-.436.172.589.589 0 0 0-.172.43v2.519a.493.493 0 0 0 .146.362.488.488 0 0 0 .359.147.5.5 0 0 0 .359-.142.483.483 0 0 0 .146-.357v-1.225z" transform="translate(1237 1143)" style="fill:#0069cb"/>
</svg>
