<svg xmlns="http://www.w3.org/2000/svg" width="18" height="18" viewBox="0 0 18 18">
    <path data-name="Exclusion 1" d="M-848-193a9.01 9.01 0 0 1-9-9 9.01 9.01 0 0 1 9-9 9.01 9.01 0 0 1 9 9 9.01 9.01 0 0 1-9 9zm-2.252-14.211a1 1 0 0 0-.753.327 1.107 1.107 0 0 0-.31.79v8.275a1.034 1.034 0 0 0 .28.728.911.911 0 0 0 .69.3.932.932 0 0 0 .7-.3 1.02 1.02 0 0 0 .287-.728v-2.492h2.249a3.232 3.232 0 0 0 2.418-.993 3.412 3.412 0 0 0 .958-2.453 3.426 3.426 0 0 0-.958-2.458 3.225 3.225 0 0 0-2.418-1zm3.018 5.033h-2.128v-3.157h2.128a1.432 1.432 0 0 1 1.076.451 1.577 1.577 0 0 1 .429 1.128 1.578 1.578 0 0 1-.429 1.128 1.432 1.432 0 0 1-1.076.45z" transform="translate(857 211)" style="fill:#0069cb"/>
</svg>
