<svg width="220" height="91" viewBox="0 0 220 91" fill="none" xmlns="http://www.w3.org/2000/svg">
    <mask id="evfbn1zfga" style="mask-type:luminance" maskUnits="userSpaceOnUse" x="0" y="0" width="220" height="92">
        <path d="M220 .001H0v91h220v-91z" fill="#fff"/>
    </mask>
    <g mask="url(#evfbn1zfga)">
        <mask id="hs9kbz6izb" style="mask-type:luminance" maskUnits="userSpaceOnUse" x="0" y="0" width="220" height="92">
            <path d="M220 .001H0v91h220v-91z" fill="#fff"/>
        </mask>
        <g mask="url(#hs9kbz6izb)">
            <g opacity=".15">
                <mask id="gq375zozuc" style="mask-type:luminance" maskUnits="userSpaceOnUse" x="204" y="68" width="17" height="4">
                    <path d="M220.499 68.016h-16.302v3.969h16.302v-3.969z" fill="#fff"/>
                </mask>
                <g mask="url(#gq375zozuc)">
                    <path d="m204.528 71.077 9.724.892a3.558 3.558 0 0 0 2.3-.584l3.849-2.568a.216.216 0 0 0 .09-.241.222.222 0 0 0-.075-.113.222.222 0 0 0-.128-.046l-10.956-.4-4.929 2.37a.367.367 0 0 0-.199.392.367.367 0 0 0 .323.299" fill="#0C3A24"/>
                </g>
            </g>
            <g opacity=".35">
                <mask id="8v4tbw2uzd" style="mask-type:luminance" maskUnits="userSpaceOnUse" x="205" y="67" width="14" height="4">
                    <path d="M218.913 67.498h-13.429v2.899h13.429v-2.899z" fill="#fff"/>
                </mask>
                <g mask="url(#8v4tbw2uzd)">
                    <path d="m205.484 69.702 8.792.7 4.637-2-9.165-.9-4.264 2.2z" fill="#0C1B24"/>
                </g>
            </g>
        </g>
        <path d="M214.503 5.427h-4.754v42.615h4.754V5.427z" fill="#BDC7D8"/>
        <mask id="m8qu8oh38e" style="mask-type:luminance" maskUnits="userSpaceOnUse" x="0" y="0" width="220" height="92">
            <path d="M220 .001H0v91h220v-91z" fill="#fff"/>
        </mask>
        <g mask="url(#m8qu8oh38e)">
            <path d="M218.914 67.861V9.847a4.417 4.417 0 0 0-4.411-4.42 4.418 4.418 0 0 0-4.411 4.42v56.634l4.069 3.419 4.753-2.039z" fill="#C9CCD4"/>
            <path d="M214.16 69.9V9.847a4.414 4.414 0 0 0-4.411-4.42 4.41 4.41 0 0 0-3.121 1.296 4.404 4.404 0 0 0-1.291 3.124v59.368l8.823.685z" fill="#fff"/>
            <path d="M209.655 9.079h1.177l-1.776 3.4.5-2.62-1.215.013 1.792-3.214-.478 2.421z" fill="#FF3F43"/>
            <path d="M209.674 20.198a.882.882 0 0 0 .62-.258.88.88 0 0 0 .256-.62v-4.907a.874.874 0 0 0-.877-.877.875.875 0 0 0-.876.877v4.907a.878.878 0 0 0 .877.878z" fill="#0C2635"/>
            <path d="M209.922 14.91c0 .219-.124.4-.285.4-.161 0-.3-.172-.3-.391 0-.219.123-.4.285-.4.162 0 .3.172.3.391zM209.922 16.29c0 .219-.124.4-.285.4-.161 0-.3-.172-.3-.391 0-.219.123-.4.285-.4.162 0 .3.172.3.391zM209.922 17.669c0 .219-.124.4-.285.4-.161 0-.3-.172-.3-.391 0-.219.123-.4.285-.4.162 0 .3.172.3.391zM209.922 19.049c0 .219-.124.4-.285.4-.161 0-.3-.172-.3-.391 0-.219.123-.4.285-.4.162 0 .3.172.3.391z" fill="#29FF73"/>
            <path d="M212.452 25.39c.044 2.2-1.237 4-2.861 4.035-1.624.035-2.976-1.721-3.02-3.917-.044-2.196 1.237-4 2.861-4.035 1.624-.035 2.976 1.721 3.02 3.917z" fill="#000"/>
            <path d="M211.815 25.399c.034 1.72-.969 3.134-2.24 3.16-1.271.026-2.33-1.348-2.365-3.067-.035-1.719.969-3.134 2.24-3.16 1.271-.026 2.331 1.348 2.365 3.067z" fill="#0C2635"/>
            <path d="M210.708 25.406c.018.917-.517 1.671-1.195 1.685-.678.014-1.243-.719-1.261-1.636-.018-.917.517-1.671 1.195-1.685.678-.014 1.243.719 1.261 1.636z" fill="#000"/>
            <path d="M210.269 25.425c.018.917-.517 1.671-1.195 1.685-.678.014-1.243-.719-1.261-1.636-.018-.917.517-1.671 1.195-1.685.678-.014 1.242.719 1.261 1.636z" fill="#29FF73"/>
            <path d="M210.033 25.429c.015.775-.437 1.412-1.01 1.424-.573.012-1.05-.607-1.065-1.382-.015-.775.437-1.412 1.01-1.424.573-.012 1.05.607 1.065 1.382z" fill="#000F1F"/>
            <path d="M209.878 25.425c.013.679-.382 1.237-.884 1.247-.502.01-.92-.532-.934-1.211-.014-.679.383-1.237.885-1.247.502-.01.919.532.933 1.211z" fill="#231F20"/>
            <g opacity=".15">
                <mask id="ara8afr9jf" style="mask-type:luminance" maskUnits="userSpaceOnUse" x="-1" y="65" width="192" height="26">
                    <path d="M190.569 65.395H-.5v25.411h191.069V65.395z" fill="#fff"/>
                </mask>
                <g mask="url(#ara8afr9jf)">
                    <path d="M190.221 69.798c.431.05.968.39-1.823 1.084-15 3.735-55.359 12.478-70.731 15.671-18.709 3.886-32.107 4.253-47.557 4.253-15.45 0-61.75-3.858-68.769-4.96-7.019-1.102 7.028-5.111 25.35-7.754 19.388-2.8 99.699-12.7 99.699-12.7s61.413 4.128 63.827 4.4" fill="#0C3A24"/>
                </g>
            </g>
            <g opacity=".59">
                <mask id="inxmup3lhg" style="mask-type:luminance" maskUnits="userSpaceOnUse" x="22" y="66" width="160" height="22">
                    <path d="M181.484 66.181H22.053v21.326h159.431V66.181z" fill="#fff"/>
                </mask>
                <g mask="url(#inxmup3lhg)">
                    <path d="M181.197 69.876c.354.041.8.326-1.5.909-12.329 3.135-45.5 10.472-58.134 13.152-15.377 3.261-26.389 3.569-39.088 3.569-12.699 0-53.33-2.715-59.1-3.64-5.77-.925 8.239-5.68 23.412-7.03 15.173-1.35 81.947-10.655 81.947-10.655s50.475 3.464 52.459 3.7" fill="#0C1B24"/>
                </g>
            </g>
            <path d="m167.702 56.997-14.755 7.107-33.816 6.432-23.982-.806-38.717-1.937L67.71 38.65l98.456 2.552a67.104 67.104 0 0 0 1.389 6.909c.965 3.757.147 8.886.147 8.886z" fill="#151717"/>
            <path d="m165.973 56.997-14.755 7.107-33.816 6.432-23.982-.806-38.717-1.937L65.98 38.65l98.456 2.552a66.839 66.839 0 0 0 1.389 6.909c.965 3.757.148 8.886.148 8.886z" fill="#151717"/>
            <path d="M92.315 66.078c0 9.759 3.472 17.671 7.756 17.671 4.284 0 7.756-7.912 7.756-17.671s-3.473-17.671-7.756-17.671-7.756 7.911-7.756 17.671z" fill="#0C2635"/>
            <path d="M100.071 48.407h9.745L110 84.184l-9.929-.436V48.407z" fill="#0C2635"/>
            <path d="M101.942 66.296c0 9.879 3.607 17.888 8.057 17.888s8.057-8.009 8.057-17.888c0-9.879-3.607-17.889-8.057-17.889s-8.057 8.009-8.057 17.889z" fill="#0C2635"/>
            <path d="M104.58 66.295c0 7.564 2.659 13.7 5.938 13.7s5.938-6.132 5.938-13.7-2.659-13.7-5.938-13.7-5.938 6.132-5.938 13.7z" fill="#BDC7D8"/>
            <path d="M105.419 66.295c0 6.81 2.341 12.33 5.227 12.33s5.227-5.521 5.227-12.33-2.341-12.33-5.227-12.33-5.227 5.52-5.227 12.33z" fill="#0C2635"/>
            <path d="m111.367 53.03-1.054 11.157 5.37-4.041.412 2.363-5.578 4.247 4.5 7.584-.69 2.072-4.681-7.8-1.823 9.565-.988-1.723 1.724-9.725-3.768-2.757.312-2.791 3.674 2.821 1.037-11.116 1.553.144z" fill="#BDC7D8"/>
            <path d="M107.931 66.295c0 2.189.769 3.963 1.718 3.963s1.718-1.774 1.718-3.963-.769-3.963-1.718-3.963-1.718 1.774-1.718 3.963z" fill="#BDC7D8"/>
            <path d="M108.178 66.295c0 1.043.367 1.889.819 1.889.452 0 .819-.846.819-1.889 0-1.043-.367-1.889-.819-1.889-.452 0-.819.846-.819 1.889zM22.611 63.761c0 8.966 5.31 16.234 11.86 16.234 6.548 0 11.858-7.268 11.858-16.234 0-8.966-5.31-16.234-11.859-16.234s-11.859 7.268-11.859 16.234z" fill="#0C2635"/>
            <path d="M34.344 47.527h7.119l-.813 32.982-6.306-.514V47.527z" fill="#0C2635"/>
            <path d="M29.418 64.067c0 9.076 5.111 16.434 11.416 16.434 6.305 0 11.416-7.358 11.416-16.434s-5.111-16.434-11.416-16.434c-6.305 0-11.416 7.358-11.416 16.434z" fill="#0C2635"/>
            <path d="M33.155 64.068c0 6.949 3.767 12.583 8.414 12.583s8.413-5.634 8.413-12.583-3.767-12.583-8.413-12.583c-4.646 0-8.414 5.633-8.414 12.583z" fill="#F0F2F8"/>
            <path d="M34.343 64.07c0 6.256 3.316 11.328 7.406 11.328s7.406-5.072 7.406-11.328c0-6.256-3.316-11.328-7.406-11.328s-7.406 5.071-7.406 11.328z" fill="#0C2635"/>
            <path d="m42.772 51.881-.858 10.25 6.974-3.712.584 2.171-7.267 3.9 5.744 6.967-.978 1.9-6-7.165-3.219 8.788-1.4-1.583 3.078-8.934-5.975-2.533.442-2.564 5.841 2.591.833-10.213 2.201.137z" fill="#F0F2F8"/>
            <path d="M38.432 64.068c0 2.011 1.09 3.641 2.434 3.641s2.434-1.63 2.434-3.64c0-2.012-1.09-3.642-2.434-3.642s-2.434 1.63-2.434 3.641z" fill="#A6B3C6"/>
            <path d="M39.252 64.068c0 .958.52 1.736 1.16 1.736.64 0 1.16-.777 1.16-1.736s-.52-1.735-1.16-1.735c-.641 0-1.16.777-1.16 1.735z" fill="#F0F2F8"/>
            <path d="M42.925 23.164c1.072.676.975 3.25 1.7 4.743 0 0 1.236.939.733 1.652a1.26 1.26 0 0 1-1.246.589 3.115 3.115 0 0 1-1.2-1 25.794 25.794 0 0 1-4.081-.97c-1.715-.581-2.538-3.5-1.926-5.035.5-1.265 4.38-1.009 6.017.024" fill="#fff"/>
        </g>
        <mask id="gron670feh" style="mask-type:luminance" maskUnits="userSpaceOnUse" x="36" y="22" width="10" height="9">
            <path d="M36.907 23.14c-.612 1.536.212 4.454 1.926 5.035 1.332.434 2.697.758 4.081.97.309.43.722.774 1.2 1a1.258 1.258 0 0 0 1.246-.589c.5-.713-.733-1.652-.733-1.652-.724-1.493-.628-4.067-1.7-4.743a7.558 7.558 0 0 0-3.655-.877c-1.144 0-2.125.259-2.362.853" fill="#fff"/>
        </mask>
        <g opacity=".15" mask="url(#gron670feh)">
            <mask id="gwqeb86cqi" style="mask-type:luminance" maskUnits="userSpaceOnUse" x="35" y="19" width="11" height="12">
                <path d="M45.357 19.883h-9.976V30.59h9.976V19.883z" fill="#fff"/>
            </mask>
            <g mask="url(#gwqeb86cqi)">
                <path d="M43.105 22.686c.593 2.894 1.857 5.817-2.114 4.565a5.724 5.724 0 0 1-4.05-3.389 13.32 13.32 0 0 1-1.177-3.978l-.388 8.447 9.032 2.26.943-.663-.8-1.449.052-1.228-1.498-4.565z" fill="#231F20"/>
            </g>
        </g>
        <mask id="a9tvn8tskj" style="mask-type:luminance" maskUnits="userSpaceOnUse" x="0" y="0" width="220" height="92">
            <path d="M220 .001H0v91h220v-91z" fill="#fff"/>
        </mask>
        <g mask="url(#a9tvn8tskj)">
            <path d="M149.826 58.971c0 7.476 2.41 13.536 5.381 13.536s5.381-6.06 5.381-13.536-2.409-13.536-5.381-13.536c-2.972 0-5.381 6.06-5.381 13.536z" fill="#0C2635"/>
            <path d="M155.202 45.435h6.761l.128 27.406-6.888-.334-.001-27.072z" fill="#0C2635"/>
            <path d="M156.5 59.138c0 7.567 2.5 13.7 5.59 13.7s5.59-6.135 5.59-13.7c0-7.565-2.5-13.7-5.59-13.7s-5.59 6.135-5.59 13.7z" fill="#0C2635"/>
            <path d="M158.331 59.138c0 5.794 1.845 10.491 4.12 10.491 2.275 0 4.12-4.7 4.12-10.491 0-5.791-1.845-10.492-4.12-10.492-2.275 0-4.12 4.7-4.12 10.492z" fill="#BDC7D8"/>
            <path d="M158.912 59.137c0 5.216 1.624 9.445 3.626 9.445s3.627-4.228 3.627-9.445c0-5.217-1.624-9.445-3.627-9.445-2.003 0-3.626 4.228-3.626 9.445z" fill="#0C2635"/>
            <path d="m163.04 48.977-.731 8.547 3.726-3.1.286 1.81-3.87 3.253 3.124 5.81-.479 1.587-3.247-5.974-1.265 7.327-.686-1.32 1.2-7.449-2.615-2.112.216-2.138 2.55 2.161.719-8.515 1.072.113z" fill="#BDC7D8"/>
            <path d="M160.655 59.137c0 1.677.534 3.036 1.192 3.036.658 0 1.191-1.359 1.191-3.036s-.533-3.036-1.191-3.036-1.192 1.359-1.192 3.036z" fill="#BDC7D8"/>
            <path d="M160.826 59.137c0 .8.254 1.447.568 1.447.314 0 .568-.647.568-1.447s-.254-1.447-.568-1.447c-.314 0-.568.648-.568 1.447z" fill="#0C2635"/>
            <path d="m167.702 56.997.031-3.159s-.3-11.774-5.088-11.521c-3.935.207-5.591 5.084-6.808 10.478-1.023 4.537-1.705 11.369-4.194 11.749-5.353.818-11.817 1.935-17.37 2.775-5.488.83-14.393 3.216-14.393 3.216.814-9.37-.828-28.323-8.9-27.908-7.467.384-10.122 14.369-11.493 30.212-1.664.941-16.66 1.742-23.5 1.742-7.3 0-42.057-1.135-46.388-1.66-4.33-.525-7.424-.757-9.6-5.5-3.572-7.781-3.269-14.959-2.618-17.741 1.191-5.084 2.485-14.161 21.123-21.164.626-.235 3.87-.051 4.556-.207C57.04 15.548 72.36 5.64 84.944 3.929c12.26-1.668 32.125-2.5 46.854-3.112 9.94-.415 19.754 4.98 28.142 14.939 2.951 2.334 5.1 3.89 5.1 3.89s3.857 16.418 4.556 17.663c.888 1.582-.1 17.87-1.881 19.686" fill="#F0F0F0"/>
        </g>
        <mask id="yzelv7k77k" style="mask-type:luminance" maskUnits="userSpaceOnUse" x="16" y="0" width="154" height="75">
            <path d="M131.789.818c-14.729.615-34.595 1.444-46.854 3.112C72.354 5.642 57.03 15.55 43.051 28.31c-.687.156-3.93-.028-4.556.207-18.638 7-19.932 16.081-21.123 21.164-.651 2.781-.955 9.96 2.618 17.741 2.177 4.741 5.27 4.973 9.6 5.5 4.33.527 39.088 1.66 46.388 1.66 6.844 0 21.841-.8 23.5-1.742 1.372-15.843 4.027-29.828 11.493-30.212 8.077-.415 9.718 18.538 8.9 27.908 0 0 8.9-2.386 14.393-3.216 5.553-.84 12.017-1.957 17.37-2.775 2.488-.38 3.17-7.212 4.194-11.749 1.217-5.395 2.873-10.271 6.808-10.478 4.79-.253 5.088 11.521 5.088 11.521l-.031 3.159c1.778-1.816 2.769-18.1 1.881-19.686-.7-1.245-4.556-17.663-4.556-17.663s-2.145-1.556-5.1-3.89c-8.087-9.6-17.5-14.962-27.073-14.962-.356 0-.712.007-1.069.022" fill="#fff"/>
        </mask>
        <g mask="url(#yzelv7k77k)">
            <g opacity=".2">
                <mask id="1jub66jj8l" style="mask-type:luminance" maskUnits="userSpaceOnUse" x="25" y="26" width="79" height="13">
                    <path d="M103.315 26.548H25.392v11.619h77.923V26.548z" fill="#fff"/>
                </mask>
                <g mask="url(#1jub66jj8l)">
                    <path d="M35.286 27.378c-17.81 5.187-8.785 10.794 5.177 10.79 29.364-.009 62.852-11.62 62.852-11.62l-68.029.83z" fill="#fff"/>
                </g>
            </g>
            <g opacity=".1">
                <mask id="611imjoe8m" style="mask-type:luminance" maskUnits="userSpaceOnUse" x="98" y="39" width="23" height="38">
                    <path d="M120.96 39.619H98.541v36.623h22.419V39.619z" fill="#fff"/>
                </mask>
                <g mask="url(#611imjoe8m)">
                    <path d="M98.551 76.243s-.31-15.562 2.589-25c2.15-7 5.353-11.535 10.561-11.62 6.42-.1 11.7 16.081 8.077 31.228-1.179 4.927-21.226 5.395-21.226 5.395" fill="#231F20"/>
                </g>
            </g>
            <g opacity=".1">
                <mask id="rj4hxk1ttn" style="mask-type:luminance" maskUnits="userSpaceOnUse" x="152" y="40" width="17" height="27">
                    <path d="M168.33 40.19h-15.465v26.166h15.465V40.19z" fill="#fff"/>
                </mask>
                <g mask="url(#rj4hxk1ttn)">
                    <path d="M152.865 66.356s.98-12.706 2.75-18.131c1.552-4.758 4.128-7.974 7.523-8.035 4.183-.074 6.633 11.814 4.271 22.669-.768 3.531-14.543 3.5-14.543 3.5" fill="#231F20"/>
                </g>
            </g>
            <g opacity=".2">
                <mask id="rp779rubpo" style="mask-type:luminance" maskUnits="userSpaceOnUse" x="102" y="15" width="64" height="17">
                    <path d="M165.234 15.913h-62.396v15.702h62.396V15.913z" fill="#fff"/>
                </mask>
                <g mask="url(#rp779rubpo)">
                    <path d="m109.453 27.585 47.55-9.726 3.109-1.95 5.125 3.579a11.423 11.423 0 0 1-4.582 3.035c-10.562 3.035-34.729 6.749-43.489 8.014l-2.033-2.064-2.967.354 2.175 2.09c-8.416 1.051-18.367 1.544-4.886-3.337" fill="#fff"/>
                </g>
            </g>
        </g>
        <mask id="oagzkoel9p" style="mask-type:luminance" maskUnits="userSpaceOnUse" x="0" y="0" width="220" height="92">
            <path d="M220 .001H0v91h220v-91z" fill="#fff"/>
        </mask>
        <g mask="url(#oagzkoel9p)">
            <g opacity=".2">
                <mask id="uz4i5fa9yq" style="mask-type:luminance" maskUnits="userSpaceOnUse" x="124" y="58" width="29" height="7">
                    <path d="M152.062 58.574h-28.006v5.778h28.006v-5.778z" fill="#fff"/>
                </mask>
                <g mask="url(#uz4i5fa9yq)">
                    <path d="M138.737 60.34c-6.871 1.172-16.447 3.117-14.4 3.85 2.047.733 10.4-1.194 15.84-2.325 12.986-2.7 19.031-5.016-1.441-1.525" fill="#fff"/>
                </g>
            </g>
            <path d="M97.723 75.59a3.667 3.667 0 0 0 1.76-2.75s-16.156 1.989-17.577 1.055c-4.536-2.981-10.85-8.7-21.667-9.051-5.485-.177-34.584-1.246-38-1.09-3.416.156.07 11.346 3.342 11.75 8.2 1.013 37.173 2.386 44.42 2.179 7.149-.2 27.722-2.093 27.722-2.093z" fill="#0C2635"/>
            <g opacity=".2">
                <mask id="rf8e09aadr" style="mask-type:luminance" maskUnits="userSpaceOnUse" x="155" y="23" width="6" height="4">
                    <path d="M160.001 23.929h-4.376v2.221h4.376v-2.221z" fill="#fff"/>
                </mask>
                <g mask="url(#rf8e09aadr)">
                    <path fill-rule="evenodd" clip-rule="evenodd" d="m159.742 24.991-4.117 1.159.26-1.063 4.117-1.159-.26 1.063z" fill="#fff"/>
                </g>
            </g>
            <path fill-rule="evenodd" clip-rule="evenodd" d="m159.706 24.821-4.116 1.159.26-1.063 4.116-1.16-.26 1.064z" fill="#0C2635"/>
            <g opacity=".2">
                <mask id="4sem23t5is" style="mask-type:luminance" maskUnits="userSpaceOnUse" x="136" y="28" width="7" height="3">
                    <path d="M142.607 28.188h-6.103v2.249h6.103v-2.249z" fill="#fff"/>
                </mask>
                <g mask="url(#4sem23t5is)">
                    <path fill-rule="evenodd" clip-rule="evenodd" d="m142.218 29.379-5.714 1.058.389-1.191 5.714-1.058-.389 1.191z" fill="#fff"/>
                </g>
            </g>
            <path fill-rule="evenodd" clip-rule="evenodd" d="m142.194 29.179-5.714 1.059.388-1.191 5.715-1.059-.389 1.191z" fill="#0C2635"/>
            <g opacity=".07">
                <mask id="eu4vo1fuwt" style="mask-type:luminance" maskUnits="userSpaceOnUse" x="119" y="31" width="50" height="31">
                    <path d="M168.347 31.473h-48.624V61.47h48.624V31.473z" fill="#fff"/>
                </mask>
                <g mask="url(#eu4vo1fuwt)">
                    <path d="M119.758 39.585c1.832 7.916 2.938 22.259 5.818 21.874 3.495-.467 21.149-3.766 23.427-4.388 2.278-.622 5.113-12.426 7.015-17.248 1.76-4.461 7.869-14.213 11.8 9.13.484 2.872.658-5.9.414-9.026-.518-6.64-2.308-9.652-19.932-8.023-6.4.591-29.613 3.075-28.547 7.681" fill="#231F20"/>
                </g>
            </g>
            <g opacity=".07">
                <mask id="jzaar6t60u" style="mask-type:luminance" maskUnits="userSpaceOnUse" x="74" y="44" width="25" height="24">
                    <path d="M98.637 44.085H74.133v23.814h24.504V44.085z" fill="#fff"/>
                </mask>
                <g mask="url(#jzaar6t60u)">
                    <path d="M98.37 46.091c1.45-3.157-3-3.133-13.28 4.058-6.3 4.41-13.64 9.193-9.978 12.179 2.95 2.405 8.853 5.763 13.054 5.562 4.2-.201 4.822-2.4 5.252-4.36.55-2.506 3.5-14.282 4.952-17.439z" fill="#231F20"/>
                </g>
            </g>
            <g opacity=".07">
                <mask id="9vaxa7ey3v" style="mask-type:luminance" maskUnits="userSpaceOnUse" x="20" y="48" width="47" height="11">
                    <path d="M66.817 48.223H20.64v10.013h46.177V48.223z" fill="#fff"/>
                </mask>
                <g mask="url(#9vaxa7ey3v)">
                    <path d="M30.416 48.235c4.582-.083 13.6.269 19 .426 6.89.2 12.244 2.144 17.034 6.335 2.406 2.105-7.333 3.331-17.646 3.234-6.7-.063-14.72-.385-19.31-.712-4.588-.327-9.81-.13-8.7-2.814a10.36 10.36 0 0 1 9.627-6.469" fill="#231F20"/>
                </g>
            </g>
            <path d="M40.515 28.518c15.118.259 51.462-.726 62.8-1.971C110.46 15.135 118.329 2.53 131.79.818c-19.673.311-36.632 1.232-47.01 2.334-10.251 1.09-29.82 11.983-44.265 25.366z" fill="#0C2635"/>
        </g>
        <mask id="imc742cggw" style="mask-type:luminance" maskUnits="userSpaceOnUse" x="40" y="0" width="92" height="29">
            <path d="M84.78 3.152c-10.251 1.09-29.82 11.983-44.265 25.366 15.117.259 51.462-.726 62.8-1.971C110.46 15.135 118.329 2.53 131.79.818c-19.674.311-36.633 1.232-47.01 2.334z" fill="#fff"/>
        </mask>
        <g mask="url(#imc742cggw)">
            <path d="M41.447 28.985C70.493 8.132 119.623 3.152 131.842.662c-19.673.311-30.306.867-40.693 1.867-15.613 1.5-35.257 13.072-49.7 26.455" fill="#5B6F80"/>
        </g>
        <mask id="qavl67gl7x" style="mask-type:luminance" maskUnits="userSpaceOnUse" x="0" y="0" width="220" height="92">
            <path d="M220 .001H0v91h220v-91z" fill="#fff"/>
        </mask>
        <g mask="url(#qavl67gl7x)" fill="#0C2635">
            <path d="M154.207 60.887s-8.639 2.017-16.619 3.683c-7.455 1.556-11.39 2.646-17.577 4.2a16.044 16.044 0 0 1-.854 1.608l-.1.648s16.072-3.516 21.046-4.228c9.423-1.349 12.075-1.529 12.81-2.282.735-.753 1.294-3.631 1.294-3.631M109.453 27.584a371.294 371.294 0 0 0 48.326-8.092c1.269-.363 1.323-1.089 1.841-3.268-7.766-9.337-19.651-13.228-25.449-12.605-16.153 1.734-24.718 23.965-24.718 23.965z"/>
        </g>
        <mask id="ssjbq4ol8y" style="mask-type:luminance" maskUnits="userSpaceOnUse" x="109" y="3" width="51" height="25">
            <path d="M134.171 3.619c-16.153 1.734-24.718 23.965-24.718 23.965a371.294 371.294 0 0 0 48.326-8.092c1.269-.363 1.323-1.089 1.841-3.268-7.234-8.7-18.042-12.669-24.176-12.669-.425-.001-.85.02-1.273.064z" fill="#fff"/>
        </mask>
        <g mask="url(#ssjbq4ol8y)">
            <path d="M109.838 26.34s11.4-14.106 28.061-14.525c13.044-.328 21.722 3.755 21.722 3.755S158.918.195 143.387.195c-15.531 0-26.508 3.527-29.2 8.507-2.692 4.98-4.349 17.637-4.349 17.637" fill="#5B6F80"/>
        </g>
        <mask id="ejvayuq8ez" style="mask-type:luminance" maskUnits="userSpaceOnUse" x="0" y="0" width="220" height="92">
            <path d="M220 .001H0v91h220v-91z" fill="#fff"/>
        </mask>
        <g mask="url(#ejvayuq8ez)">
            <path d="M135.445 3.555c-.425-.001-.851.02-1.274.064-16.153 1.734-24.718 23.965-24.718 23.965a371.294 371.294 0 0 0 48.326-8.092c1.268-.363 1.323-1.089 1.841-3.268-7.234-8.7-18.041-12.669-24.175-12.669zm22.384 14.506c-.047.084-.08.145-.392.234-1.489.426-8.314 1.985-17.344 3.656-7.384 1.367-18.155 3.162-28.664 4.2a57.095 57.095 0 0 1 5.332-9.168 36.828 36.828 0 0 1 7.481-7.892 20.226 20.226 0 0 1 10.06-4.231c.379-.04.76-.058 1.141-.057a27.685 27.685 0 0 1 11.142 2.953 35.988 35.988 0 0 1 11.681 8.8 7.56 7.56 0 0 1-.437 1.51" fill="#0C2635"/>
            <g opacity=".07">
                <mask id="p531t2ocmA" style="mask-type:luminance" maskUnits="userSpaceOnUse" x="25" y="38" width="39" height="7">
                    <path d="M63.816 38.197H25.54v6.307h38.277v-6.307z" fill="#fff"/>
                </mask>
                <g mask="url(#p531t2ocmA)">
                    <path d="M25.54 43.492c4.27.62 8.577.958 12.892 1.009 8.547.052 21.727-.83 21.727-.83l3.657-5.474a246.573 246.573 0 0 1-24.99 1.545c-8.614-.085-11.858-1.279-11.858-1.279l-1.429 5.029z" fill="#231F20"/>
                </g>
            </g>
            <path d="M40.777 42.968a1.455 1.455 0 1 1 .36-2.3 1.684 1.684 0 0 1-.36 2.3z" fill="#0C2635"/>
            <path d="m140.949 66.663-.043-.149c.343-.1.667-.257.957-.466.277-.201.524-.44.734-.711a5.808 5.808 0 0 0 .917-1.789 9.394 9.394 0 0 0 .441-2.312 4.998 4.998 0 0 1-.903-.899 3.55 3.55 0 0 1-.564-1.034 2.505 2.505 0 0 1-.083-1.313c.2-.967.387-2.026.548-3.148.156-1.084.293-2.257.409-3.484a101.7 101.7 0 0 0 .282-3.77c.072-1.267.128-2.615.167-4 .072-2.61.084-5.473.036-8.51a297.597 297.597 0 0 0-.28-8.807l-3.359-3.024a.083.083 0 0 1-.023-.039L135.417 3.64l.151-.037 4.762 19.544 3.365 3.03a.08.08 0 0 1 .025.054c.143 3.109.238 6.085.281 8.844.048 3.039.036 5.9-.035 8.517-.038 1.391-.094 2.74-.167 4.009-.075 1.319-.17 2.59-.282 3.776a73.007 73.007 0 0 1-.41 3.492 49.751 49.751 0 0 1-.55 3.158c-.085.41-.058.836.078 1.232.124.357.306.691.54.988.258.337.561.636.9.891a.077.077 0 0 1 .033.066 9.7 9.7 0 0 1-.45 2.396 5.977 5.977 0 0 1-.942 1.837c-.219.282-.477.53-.765.741a3.292 3.292 0 0 1-1.002.485zM161.686 42.509l-.154-.022c.047-.401.072-.804.075-1.208.01-.466 0-.97-.02-1.5a32.948 32.948 0 0 0-.159-2.083c-.07-.489-.175-.971-.314-1.445a15.892 15.892 0 0 1-.4-1.778 7.472 7.472 0 0 1-.027-2.112c.084-.822.121-1.65.109-2.476 0-.909-.016-2.011-.054-3.276-.062-2.011-.156-3.8-.17-4.05l-2.854-3.014a.078.078 0 0 1-.017-.028l-2.625-7.691.147-.05 2.619 7.674 2.862 3.022c.012.013.02.03.021.049 0 .019.105 1.926.171 4.082.039 1.267.057 2.371.054 3.281.012.835-.025 1.67-.11 2.5a7.318 7.318 0 0 0 .027 2.069c.097.594.229 1.182.393 1.761.142.481.249.972.319 1.469.078.726.132 1.431.16 2.1.023.532.029 1.04.019 1.509-.001.407-.026.813-.072 1.217zM122.011 70.423l-.065-.142c.33-.15.634-.353.9-.6a3.75 3.75 0 0 0 .642-.79 5.585 5.585 0 0 0 .684-1.83 8.681 8.681 0 0 0 .14-2.265 10.4 10.4 0 0 1-.417-.958 13.16 13.16 0 0 1-.67-2.423c-.094-.551-.219-1.531-.393-2.888-.2-1.54-.443-3.457-.759-5.661a198.945 198.945 0 0 0-1.162-7.225c-.243-1.342-.5-2.648-.754-3.881-.283-1.356-.58-2.666-.882-3.891-.327-1.33-.67-2.6-1.018-3.774a57.616 57.616 0 0 0-1.158-3.514l-3.3-3.38.111-.109 3.309 3.398a.074.074 0 0 1 .017.027c.4 1.084.792 2.275 1.167 3.539a84.241 84.241 0 0 1 1.02 3.781c.3 1.228.6 2.539.883 3.9.258 1.235.512 2.542.755 3.886.408 2.256.788 4.621 1.162 7.23.316 2.205.562 4.122.759 5.663.174 1.355.3 2.334.392 2.882.077.449.18.893.306 1.33.1.357.223.714.356 1.062.122.327.262.646.418.958a.07.07 0 0 1 .008.028c0 .011.027.276.024.7a8.79 8.79 0 0 1-.164 1.626 5.737 5.737 0 0 1-.7 1.881c-.185.303-.41.58-.669.823a3.543 3.543 0 0 1-.942.617zM86.934 34.39l-.047-.148c.04-.013 4.12-1.311 8.914-2.782a598.197 598.197 0 0 1 7.455-2.241c2.664-.779 4.743-1.354 6.178-1.709l.037.151c-1.433.355-3.51.929-6.172 1.707-2.13.623-4.638 1.377-7.453 2.24a1034.458 1034.458 0 0 0-8.912 2.782z" fill="#404041"/>
            <path d="M104.687 28.838a2.314 2.314 0 0 0-.217-.658 4.289 4.289 0 0 0-.428-.71 6.114 6.114 0 0 0-.78-.865l.105-.114c.295.271.563.57.8.893.171.232.32.479.443.739.112.22.188.456.227.7l-.15.015zM106.032 45.488l-1.561-1.626a19.443 19.443 0 0 0-1.41-1.026c-.534-.358-1.1-.713-1.692-1.055-.735-.427-1.5-.834-2.281-1.211-3.788-1.831-12.129-6.143-12.213-6.187l.07-.138c.085.043 8.424 4.355 12.21 6.185.783.378 1.554.788 2.294 1.217.591.344 1.164.7 1.7 1.061.915.614 1.419 1.032 1.424 1.036l.006.006 1.565 1.63-.112.108z" fill="#404041"/>
            <path d="M59.246 45.022a51.744 51.744 0 0 1 4.57-6.825c4.164-.523 18.727-2.745 23.094-3.924-1.788 3.338-2.676 4.34-5.158 5.34-4.308 1.737-12.616 3.919-22.506 5.408M25.54 44.504c-2.252-.23-4.9-1.854-4.763-3.5.207-2.5 3.878-4.809 3.878-4.809-.3.179.263 1.706 2.572 2.348a47.051 47.051 0 0 0-1.687 5.962" fill="#C9CCD4"/>
            <path d="M117.925 21.798c-1.64.731-3.529 3.63-4.637 5.245 0 0-1.892 1.015-1.123 1.786a2.275 2.275 0 0 0 1.908.637 4.777 4.777 0 0 0 1.832-1.085 53.508 53.508 0 0 0 6.248-1.048c2.625-.628 3.808-3.561 3.791-5.392-.012-1.31-5.512-1.258-8.018-.142" fill="#fff"/>
        </g>
        <mask id="r3wbppyxqB" style="mask-type:luminance" maskUnits="userSpaceOnUse" x="111" y="20" width="15" height="10">
            <path d="M117.924 21.798c-1.641.731-3.529 3.63-4.638 5.245 0 0-1.892 1.015-1.123 1.786a2.275 2.275 0 0 0 1.908.637 4.785 4.785 0 0 0 1.832-1.085 53.508 53.508 0 0 0 6.248-1.048c2.625-.628 3.808-3.561 3.791-5.392-.006-.667-1.436-.981-3.169-.981a13.215 13.215 0 0 0-4.849.839" fill="#fff"/>
        </mask>
        <g opacity=".07" mask="url(#r3wbppyxqB)">
            <mask id="k62lbg6b9C" style="mask-type:luminance" maskUnits="userSpaceOnUse" x="112" y="18" width="16" height="12">
                <path d="M127.437 18.372h-15.274v11.576h15.274V18.372z" fill="#fff"/>
            </mask>
            <g mask="url(#k62lbg6b9C)">
                <path d="M117.201 22.124c-2.349 3.279-4.439 5.566 1.64 4.213 3.272-.729 4.491-1.434 6.2-3.664a11.316 11.316 0 0 0 1.8-4.3l.594 9.133-13.83 2.443-1.444-.717 1.219-1.566-.08-1.328 3.901-4.214z" fill="#231F20"/>
            </g>
        </g>
        <mask id="8fs5qjqndD" style="mask-type:luminance" maskUnits="userSpaceOnUse" x="0" y="0" width="220" height="92">
            <path d="M220 .001H0v91h220v-91z" fill="#fff"/>
        </mask>
        <g mask="url(#8fs5qjqndD)">
            <path d="M208.654 24.264a.938.938 0 0 1 1.133.869 1.308 1.308 0 0 1-.921 1.619c-.568.208-1.349.691-1.413 1.021-.023.12-.11 1.26-.315 2.314-.161.691-.369 1.37-.622 2.034a.844.844 0 0 1-.631.325 5.4 5.4 0 0 1-.62-3.576c.126-.773.204-1.554.232-2.337-.06-.214-.645-.448.221-.892a18.518 18.518 0 0 1 2.936-1.377z" fill="#0C2635"/>
        </g>
        <mask id="35l9d8bpkE" style="mask-type:luminance" maskUnits="userSpaceOnUse" x="205" y="24" width="5" height="9">
            <path d="M208.654 24.264a18.516 18.516 0 0 0-2.935 1.377c-.866.444-.281.678-.221.892a18.687 18.687 0 0 1-.232 2.337 5.4 5.4 0 0 0 .62 3.576.85.85 0 0 0 .631-.325c.253-.663.461-1.343.622-2.034.205-1.054.292-2.194.315-2.314.063-.331.845-.814 1.413-1.021a1.311 1.311 0 0 0 .961-1.106 1.308 1.308 0 0 0-.04-.513.98.98 0 0 0-.914-.9.73.73 0 0 0-.219.033" fill="#fff"/>
        </mask>
        <g mask="url(#35l9d8bpkE)">
            <path d="M205.417 26.623s.415-.1.533-.323c.32-.305.707-.532 1.13-.661.537-.239 2.491-1.254 2.491-1.254a3.93 3.93 0 0 0-.924-.538c-.159.02-3.7 1.971-3.7 1.971l.142.277.328.528z" fill="#BBBDBF"/>
            <g style="mix-blend-mode:multiply" opacity=".5">
                <mask id="e6schs1qpF" style="mask-type:luminance" maskUnits="userSpaceOnUse" x="206" y="25" width="5" height="8">
                    <path d="M210.052 25.176h-3.73v6.975h3.73v-6.975z" fill="#fff"/>
                </mask>
                <g mask="url(#e6schs1qpF)">
                    <path d="M210.052 25.176s-2.159 1.154-2.7 1.563a1.61 1.61 0 0 0-.691 1.158c-.107.763-.324 3.868-.336 4.008-.012.14.493.246.493.246l1-4.394 1.2-.853s.971-.484.99-.76c.019-.276.042-.967.042-.967" fill="#0C1B24"/>
                </g>
            </g>
            <g opacity=".2">
                <mask id="h52n7aqvdG" style="mask-type:luminance" maskUnits="userSpaceOnUse" x="205" y="24" width="5" height="2">
                    <path d="M209.399 24.077h-3.94v1.736h3.94v-1.736z" fill="#fff"/>
                </mask>
                <g mask="url(#h52n7aqvdG)">
                    <path d="M205.465 25.603s-.128.333.531.16c.659-.173 3.4-1.524 3.4-1.524a1.487 1.487 0 0 0-1.028-.1c-.426.186-2.9 1.463-2.9 1.463" fill="#fff"/>
                </g>
            </g>
            <g opacity=".1">
                <mask id="8120qzowaH" style="mask-type:luminance" maskUnits="userSpaceOnUse" x="205" y="26" width="2" height="1">
                    <path d="M206.031 26.377h-.889v.45h.889v-.45z" fill="#fff"/>
                </mask>
                <g mask="url(#8120qzowaH)">
                    <path d="M206.026 26.456c.031.094-.141.236-.384.318-.243.082-.466.071-.5-.023-.034-.094.141-.236.384-.318.243-.082.466-.071.5.023z" fill="#0C1B24"/>
                </g>
            </g>
            <g opacity=".2">
                <mask id="jjl2t44dfI" style="mask-type:luminance" maskUnits="userSpaceOnUse" x="205" y="27" width="1" height="6">
                    <path d="M205.845 27.076h-.812v5.161h.812v-5.161z" fill="#fff"/>
                </mask>
                <g mask="url(#jjl2t44dfI)">
                    <path d="M205.351 27.577c.106-.43.443-.692.48-.329.037.363 0 4.4-.112 4.825-.046.175-.295.231-.338.058a17.413 17.413 0 0 1-.328-3.743c.041-.29.143-.566.3-.812" fill="#fff"/>
                </g>
            </g>
        </g>
        <mask id="sahtuxregJ" style="mask-type:luminance" maskUnits="userSpaceOnUse" x="0" y="0" width="220" height="92">
            <path d="M220 .001H0v91h220v-91z" fill="#fff"/>
        </mask>
        <g mask="url(#sahtuxregJ)">
            <path d="m205.545 27.274.171-.008c.12 0 .211-.143.2-.312-.011-.169-.111-.3-.23-.3l-.171.008c-.12 0-.211.143-.2.312.011.169.11.3.23.3z" fill="#29FF73"/>
            <g opacity=".1">
                <mask id="7lunl6tmrK" style="mask-type:luminance" maskUnits="userSpaceOnUse" x="205" y="26" width="1" height="2">
                    <path d="M205.921 26.656h-.402v.619h.402v-.619z" fill="#fff"/>
                </mask>
                <g mask="url(#7lunl6tmrK)">
                    <path d="m205.712 27.266-.171.008c.12 0 .211-.143.2-.311-.011-.168-.111-.3-.231-.3l.171-.008c.12 0 .223.13.231.3.008.17-.084.307-.2.311z" fill="#0C1B24"/>
                </g>
            </g>
            <path d="m206.517 32.975.186-1.09c.019-.108-.254-.206-.607-.22-.353-.014-.632.063-.622.172l.107 1.1c.011.109.218.205.461.215.243.01.457-.07.475-.178" fill="#1D3439"/>
            <g opacity=".2">
                <mask id="wbtq7uq9lL" style="mask-type:luminance" maskUnits="userSpaceOnUse" x="205" y="31" width="2" height="2">
                    <path d="M206.705 31.665h-1.231v1.312h1.231v-1.312z" fill="#fff"/>
                </mask>
                <g mask="url(#wbtq7uq9lL)">
                    <path d="m206.704 31.887-.186 1.09c.018-.108-.188-.2-.461-.215-.273-.015-.485.069-.475.177l-.107-1.1c-.01-.109.268-.186.622-.172.354.014.625.113.607.22z" fill="#0C1B24"/>
                </g>
            </g>
            <path d="m161.859 24.111.154 3.724a.534.534 0 0 0 .443.511c.081.015.163.011.242-.011l2.089-.587a.961.961 0 0 0 .7-.983l-.229-3.861a.453.453 0 0 0-.406-.427.458.458 0 0 0-.21.027l-2.29.864a.766.766 0 0 0-.492.745" fill="#000F1F"/>
            <path d="m161.933 24.573.131 3.173a.458.458 0 0 0 .583.424l1.78-.5a.82.82 0 0 0 .6-.837l-.195-3.289a.39.39 0 0 0-.525-.342l-1.951.736a.653.653 0 0 0-.419.635" fill="#0C2635"/>
            <path d="M162.552 25.959c.224.91.77 1.557 1.22 1.446.45-.111.633-.939.41-1.848-.223-.909-.77-1.557-1.22-1.446-.45.111-.633.938-.41 1.848z" fill="#000"/>
            <path d="M162.847 25.896c.224.91.77 1.557 1.22 1.446.45-.111.634-.939.41-1.849-.224-.91-.77-1.557-1.22-1.446-.45.111-.634.939-.41 1.849z" fill="#29FF73"/>
            <path d="M163.003 25.858c.189.769.651 1.316 1.031 1.222.38-.094.535-.793.346-1.562-.189-.769-.651-1.316-1.031-1.222-.38.094-.535.793-.346 1.562z" fill="#000F1F"/>
            <path d="M163.104 25.821c.166.673.57 1.153.9 1.071.33-.082.469-.695.3-1.368-.169-.673-.57-1.153-.9-1.071-.33.082-.469.695-.3 1.368z" fill="#000"/>
            <path d="M163.677 24.567c-.427.074-.665.566-.464 1.21.279.894.788 1.025 1.35.955.562-.07 2.073-.338 2.266-.09.288.665.645 1.299 1.064 1.89.429.507.893.985 1.387 1.429a.799.799 0 0 0 .665 0 5.055 5.055 0 0 0-1.011-3.247 17.59 17.59 0 0 1-1.191-1.849c-.042-.2.346-.65-.565-.648a32.937 32.937 0 0 0-3.501.35z" fill="#0C2635"/>
        </g>
        <mask id="5l6th3q8gM" style="mask-type:luminance" maskUnits="userSpaceOnUse" x="163" y="24" width="7" height="7">
            <path d="M167.178 24.217c-1.172.054-2.34.171-3.5.35-.427.074-.665.566-.464 1.21.279.894.788 1.025 1.35.955.562-.07 2.073-.338 2.267-.09.288.665.645 1.299 1.064 1.89.429.507.893.985 1.387 1.429a.794.794 0 0 0 .665 0 5.055 5.055 0 0 0-1.011-3.247 17.4 17.4 0 0 1-1.191-1.849c-.041-.2.345-.649-.562-.649" fill="#fff"/>
        </mask>
        <g mask="url(#5l6th3q8gM)">
            <path d="M167.85 24.907a.926.926 0 0 1-.582-.041 2.656 2.656 0 0 0-1.224-.066c-.55.031-3.078.263-3.078.263s.4-.793.54-.845c.14-.052 4.388-.18 4.388-.18v.291l-.044.578z" fill="#BBBDBF"/>
            <g style="mix-blend-mode:multiply" opacity=".5">
                <mask id="i86om94q5N" style="mask-type:luminance" maskUnits="userSpaceOnUse" x="162" y="25" width="8" height="6">
                    <path d="M169.359 25.69h-6.457v4.424h6.457V25.69z" fill="#fff"/>
                </mask>
                <g mask="url(#i86om94q5N)">
                    <path d="M162.902 25.927a29.695 29.695 0 0 1 3.619-.215 1.513 1.513 0 0 1 1.071.669c.416.59 1.689 3.205 1.759 3.316.07.111-.306.416-.306.416l-2.713-3.233-1.831.043s-1.016.013-1.15-.209c-.134-.222-.448-.788-.448-.788" fill="#0C1B24"/>
                </g>
            </g>
            <g opacity=".2">
                <mask id="f1aqttzinO" style="mask-type:luminance" maskUnits="userSpaceOnUse" x="163" y="24" width="5" height="1">
                    <path d="M167.419 24.078h-4.374v.787h4.374v-.787z" fill="#fff"/>
                </mask>
                <g mask="url(#f1aqttzinO)">
                    <path d="M167.369 24.078s.249.222-.374.361c-.623.139-3.95.427-3.95.427a1.4 1.4 0 0 1 .815-.524c.435-.028 3.509-.264 3.509-.264z" fill="#fff"/>
                </g>
            </g>
            <g opacity=".1">
                <mask id="54r4qzxqwP" style="mask-type:luminance" maskUnits="userSpaceOnUse" x="167" y="24" width="2" height="2">
                    <path d="M168.131 24.782h-.862v.358h.862v-.358z" fill="#fff"/>
                </mask>
                <g mask="url(#54r4qzxqwP)">
                    <path d="M167.27 25.027c.014.092.218.137.456.1.238-.037.419-.141.4-.233-.019-.092-.219-.137-.456-.1-.237.037-.419.141-.4.233z" fill="#0C1B24"/>
                </g>
            </g>
            <g opacity=".2">
                <mask id="1bgatho4vQ" style="mask-type:luminance" maskUnits="userSpaceOnUse" x="167" y="25" width="4" height="5">
                    <path d="M170.233 25.398h-2.486v4.254h2.486v-4.254z" fill="#fff"/>
                </mask>
                <g mask="url(#1bgatho4vQ)">
                    <path d="M168.311 25.673c-.272-.313-.665-.387-.54-.068s1.563 3.676 1.838 3.982c.113.126.66.059.623-.1a16.331 16.331 0 0 0-1.325-3.261 1.906 1.906 0 0 0-.6-.549" fill="#fff"/>
                </g>
            </g>
        </g>
        <mask id="dlna6vrzbR" style="mask-type:luminance" maskUnits="userSpaceOnUse" x="0" y="0" width="220" height="92">
            <path d="M220 .001H0v91h220v-91z" fill="#fff"/>
        </mask>
        <g mask="url(#dlna6vrzbR)">
            <path d="M168.086 25.157c-.067-.143-.189-.227-.272-.188l-.2.092c-.083.039-.1.187-.03.33.07.143.189.227.272.188l.2-.092c.083-.039.1-.187.03-.33z" fill="#29FF73"/>
            <g opacity=".1">
                <mask id="661if07dfS" style="mask-type:luminance" maskUnits="userSpaceOnUse" x="167" y="24" width="2" height="2">
                    <path d="M168.056 24.968h-.511v.62h.511v-.62z" fill="#fff"/>
                </mask>
                <g mask="url(#661if07dfS)">
                    <path d="m167.86 25.578.2-.092c-.083.039-.2-.045-.271-.188-.071-.143-.054-.291.03-.33l-.2.092c-.083.039-.1.187-.03.33.07.143.188.227.271.188z" fill="#0C1B24"/>
                </g>
            </g>
            <path d="M170.008 30.641c.223-.1.378-.274.346-.379l-.327-1.067c-.032-.105-.321-.069-.645.082-.324.151-.539.348-.48.442l.6.942c.059.093.288.084.511-.02" fill="#1D3439"/>
            <g opacity=".2">
                <mask id="aqpq9zhcaT" style="mask-type:luminance" maskUnits="userSpaceOnUse" x="168" y="29" width="3" height="2">
                    <path d="M170.353 29.134h-1.462v1.526h1.462v-1.526z" fill="#fff"/>
                </mask>
                <g mask="url(#aqpq9zhcaT)">
                    <path d="m168.901 29.718.6.942c-.059-.093.1-.263.345-.379.245-.116.479-.125.511-.019l-.327-1.067c-.032-.105-.321-.069-.645.082-.324.151-.539.348-.48.442" fill="#0C1B24"/>
                </g>
            </g>
            <path d="M193.586 73.254c-15.831 0-18.165-14.479-20.225-27.254-.92-5.711-1.791-11.105-3.708-15.151a.423.423 0 0 1-.016-.316.406.406 0 0 1 .369-.274.41.41 0 0 1 .394.235c1.967 4.152 2.846 9.6 3.777 15.374 2.1 13.057 4.281 26.558 19.409 26.558 6.942 0 10.667-.867 12.453-2.9 2.139-2.433 1.6-6.728.772-13.229a122.458 122.458 0 0 1-1.182-23.166.413.413 0 0 1 .826.044c-.347 7.693.047 15.4 1.176 23.018.852 6.725 1.415 11.167-.972 13.88-1.96 2.23-5.869 3.181-13.073 3.181z" fill="#231F20"/>
            <path d="m162.489 22.973 2.363-.948a.582.582 0 0 0 .3-.229l2.054-2.581c.171-.236-.165-.5-.368-.521 0 0-2.807.776-2.987.843a1.147 1.147 0 0 0-.5.473l-1.378 2.466c-.184.307.322.564.519.5" fill="#0C2635"/>
            <path d="m162.489 22.973 2.683-.907a.58.58 0 0 0 .3-.229l1.735-2.622a.226.226 0 0 0-.116-.341.227.227 0 0 0-.136-.004l-2.784.786a.832.832 0 0 0-.5.4l-1.45 2.6a.226.226 0 0 0 .136.33.227.227 0 0 0 .135-.003" fill="#000F1F"/>
            <path d="m162.766 22.396 1.871-.521a.853.853 0 0 1 .261.577c-.013.321-.419.5-.419.5l-1.867.626.385-.437.025-.36-.256-.385z" fill="#000"/>
            <path d="m162.766 22.396-.077.191.067.056a.415.415 0 0 1 .081.554.42.42 0 0 1-.15.136l-.076.041v.206l.253-.142a.549.549 0 0 0 .274-.423.537.537 0 0 0-.192-.466l-.18-.153zM165.338 21.304c.354-.55.364-1.175.022-1.4-.342-.225-.906.046-1.26.6-.354.554-.365 1.175-.022 1.4.343.225.905-.046 1.26-.6z" fill="#0C2635"/>
            <path d="M165.24 21.236c.3-.463.307-.99.019-1.176-.288-.186-.763.039-1.062.5-.299.461-.307.99-.019 1.176.288.186.763-.039 1.062-.5z" fill="#000F1F"/>
            <path d="M165.339 21.305c.3-.463.319-.982.046-1.158-.273-.176-.736.056-1.034.52-.298.464-.319.982-.046 1.158.273.176.736-.057 1.034-.52z" fill="#0C2635"/>
        </g>
    </g>
</svg>
