<svg xmlns="http://www.w3.org/2000/svg" width="13" height="13" viewBox="0 0 13 13">
    <path d="m71.421-886.995-1.369-1.369a.591.591 0 0 0-.435-.177.64.64 0 0 0-.457.192.619.619 0 0 0-.177.443.575.575 0 0 0 .185.434l1.807 1.823a.613.613 0 0 0 .442.185.629.629 0 0 0 .447-.185l3.642-3.651a.6.6 0 0 0 .2-.446.621.621 0 0 0-.2-.453.627.627 0 0 0-.458-.169.653.653 0 0 0-.449.185zm.944 5.3a6.34 6.34 0 0 1-2.525-.508 6.544 6.544 0 0 1-2.07-1.393 6.547 6.547 0 0 1-1.393-2.069 6.33 6.33 0 0 1-.508-2.524 6.378 6.378 0 0 1 .508-2.541 6.468 6.468 0 0 1 1.392-2.063 6.647 6.647 0 0 1 2.068-1.39 6.3 6.3 0 0 1 2.526-.512 6.353 6.353 0 0 1 2.543.511 6.561 6.561 0 0 1 2.063 1.388 6.556 6.556 0 0 1 1.389 2.062 6.347 6.347 0 0 1 .512 2.543 6.3 6.3 0 0 1-.512 2.526 6.651 6.651 0 0 1-1.39 2.069 6.468 6.468 0 0 1-2.061 1.392 6.37 6.37 0 0 1-2.541.504zm0-1.243a5.063 5.063 0 0 0 3.722-1.533 5.069 5.069 0 0 0 1.531-3.72 5.067 5.067 0 0 0-1.531-3.722 5.072 5.072 0 0 0-3.727-1.531 5.065 5.065 0 0 0-3.715 1.531 5.067 5.067 0 0 0-1.534 3.727 5.061 5.061 0 0 0 1.533 3.715 5.063 5.063 0 0 0 3.721 1.533zm0-5.253z" transform="translate(-65.869 894.696)" style="fill:#00ab84"/>
</svg>
