<svg width="39" height="39" viewBox="0 0 39 39" fill="none" xmlns="http://www.w3.org/2000/svg">
    <path d="M22.795 39h-6.61c-.4.005-.789-.13-1.1-.381a1.535 1.535 0 0 1-.579-.991l-.772-4.769c-.636-.23-1.25-.514-1.837-.849a12.69 12.69 0 0 1-1.7-1.126l-4.476 2.042c-.383.182-.822.21-1.225.078a1.613 1.613 0 0 1-.944-.794L.235 26.443a1.4 1.4 0 0 1-.176-1.152c.104-.394.338-.74.664-.985l4.145-2.968a5.6 5.6 0 0 1-.111-.915c-.017-.345-.025-.65-.025-.916 0-.265.008-.57.025-.916a5.6 5.6 0 0 1 .111-.915L.723 14.697a1.809 1.809 0 0 1-.664-.985 1.37 1.37 0 0 1 .176-1.141l3.317-5.767a1.7 1.7 0 0 1 .956-.776c.398-.136.834-.11 1.213.072l4.5 2.03c.529-.415 1.09-.786 1.679-1.111a9.6 9.6 0 0 1 1.83-.8l.773-4.84c.057-.393.265-.748.579-.991.311-.251.7-.386 1.1-.382h6.61c.4-.004.789.13 1.1.382.314.243.521.598.579.99l.772 4.793c.636.236 1.256.514 1.856.831a8.188 8.188 0 0 1 1.683 1.133l4.476-2.03a1.64 1.64 0 0 1 1.219-.078c.407.126.748.407.95.782l3.328 5.719a1.502 1.502 0 0 1 .195 1.176c-.092.412-.341.77-.695 1l-4.156 2.883c.06.318.1.64.117.964a15.533 15.533 0 0 1 0 1.904 7.322 7.322 0 0 1-.117.939l4.156 2.92c.326.244.56.591.664.985a1.425 1.425 0 0 1-.165 1.152l-3.34 5.767a1.614 1.614 0 0 1-.939.794 1.645 1.645 0 0 1-1.219-.078l-4.488-2.042c-.531.418-1.09.8-1.672 1.144a7.992 7.992 0 0 1-1.856.831l-.772 4.769a1.535 1.535 0 0 1-.579.991c-.31.247-.697.379-1.094.374zM19.47 25.75a6.207 6.207 0 0 0 4.509-1.825 5.955 5.955 0 0 0 1.862-4.418 5.956 5.956 0 0 0-1.862-4.418 6.207 6.207 0 0 0-4.509-1.825 6.205 6.205 0 0 0-4.509 1.825 5.954 5.954 0 0 0-1.862 4.418 5.956 5.956 0 0 0 1.862 4.418 6.205 6.205 0 0 0 4.509 1.825z" fill="#707070"/>
</svg>
