<svg width="33" height="33" viewBox="0 0 33 33" fill="none" xmlns="http://www.w3.org/2000/svg">
    <path d="m21.425 32.831-10.833-3.877-7.971 3.215a1.677 1.677 0 0 1-1.763-.073 1.768 1.768 0 0 1-.857-1.6V5.061a2.01 2.01 0 0 1 .387-1.212 2.259 2.259 0 0 1 1.014-.782L9.572.161a2.982 2.982 0 0 1 1.02-.159c.345.008.688.061 1.02.159l10.833 3.842L30.37.788a1.794 1.794 0 0 1 1.768.1A1.713 1.713 0 0 1 33 2.467v25.754a1.5 1.5 0 0 1-.392 1.035c-.265.293-.6.513-.974.64l-8.17 2.952a2.982 2.982 0 0 1-1.02.159 3.65 3.65 0 0 1-1.019-.176zm-.512-3.459V6.582l-8.834-3.008v22.79l8.834 3.008z" fill="#00AB84"/>
</svg>
