<svg width="60" height="60" viewBox="0 0 60 60" fill="none" xmlns="http://www.w3.org/2000/svg">
<path fill-rule="evenodd" clip-rule="evenodd" d="M60 30C60 46.5685 46.5685 60 30 60C13.4315 60 0 46.5685 0 30C0 13.4315 13.4315 0 30 0C46.5685 0 60 13.4315 60 30ZM15.8794 21.917C16.0544 21.9882 16.2422 22.0226 16.431 22.018C16.6195 22.0206 16.8065 21.9851 16.981 21.9136C17.1554 21.8421 17.3136 21.7361 17.446 21.602C17.5815 21.4697 17.6883 21.311 17.7599 21.1357C17.8314 20.9604 17.8662 20.7723 17.862 20.583V17.883H20.562C20.7508 17.8873 20.9385 17.8531 21.1136 17.7827C21.2888 17.7122 21.4478 17.6069 21.581 17.473C21.7164 17.3412 21.8232 17.1827 21.8946 17.0078C21.966 16.8328 22.0005 16.6449 21.996 16.456C21.9996 16.2646 21.9648 16.0745 21.8935 15.8969C21.8222 15.7193 21.7159 15.5578 21.581 15.422C21.4503 15.2837 21.2921 15.1744 21.1167 15.1008C20.9412 15.0273 20.7523 14.9912 20.562 14.995H16.431C16.2416 14.9927 16.0538 15.0297 15.8794 15.1038C15.705 15.1778 15.5479 15.2871 15.418 15.425C15.2835 15.5599 15.1775 15.7206 15.1063 15.8974C15.0352 16.0742 15.0004 16.2635 15.004 16.454V20.585C14.9998 20.7738 15.0339 20.9614 15.1044 21.1366C15.1748 21.3118 15.2802 21.4708 15.414 21.604C15.546 21.7392 15.7044 21.8458 15.8794 21.917ZM15.8787 44.8935C16.0539 44.9647 16.2419 44.9992 16.431 44.995L20.565 44.998C20.7538 45.0023 20.9415 44.9682 21.1166 44.8977C21.2918 44.8272 21.4508 44.7219 21.584 44.588C21.7194 44.4561 21.8262 44.2978 21.8976 44.1228C21.969 43.9478 22.0035 43.7599 21.999 43.571C22.0029 43.3811 21.9682 43.1924 21.8968 43.0164C21.8255 42.8403 21.7191 42.6806 21.584 42.547C21.4518 42.4116 21.293 42.3048 21.1177 42.2332C20.9424 42.1617 20.7543 42.1268 20.565 42.131H17.865V39.431C17.8693 39.2422 17.8352 39.0546 17.7647 38.8794C17.6942 38.7042 17.5889 38.5452 17.455 38.412C17.3232 38.2766 17.1648 38.1698 16.9898 38.0984C16.8148 38.027 16.627 37.9925 16.438 37.997C16.2481 37.9927 16.0593 38.0273 15.8831 38.0987C15.7071 38.1701 15.5474 38.2767 15.414 38.412C15.2786 38.5443 15.1718 38.703 15.1002 38.8783C15.0287 39.0536 14.9939 39.2417 14.998 39.431V43.562C14.9938 43.7511 15.0283 43.9391 15.0995 44.1144C15.1707 44.2896 15.2771 44.4484 15.412 44.581C15.5446 44.7159 15.7034 44.8223 15.8787 44.8935ZM38.8593 44.8928C39.0346 44.9644 39.2227 44.9991 39.412 44.995L43.546 44.992C43.7366 44.9956 43.9259 44.9608 44.1027 44.8897C44.2794 44.8186 44.4401 44.7126 44.575 44.578C44.7128 44.447 44.8217 44.2887 44.8949 44.1133C44.9681 43.9378 45.0039 43.7491 45 43.559V39.428C45.004 39.2383 44.9688 39.05 44.8965 38.8746C44.8242 38.6993 44.7165 38.5407 44.58 38.409C44.4457 38.2738 44.2853 38.1674 44.1086 38.096C43.9319 38.0247 43.7426 37.99 43.552 37.994C43.3621 37.9897 43.1732 38.0244 42.9972 38.0957C42.8211 38.1671 42.6614 38.2737 42.528 38.409C42.3926 38.5413 42.2858 38.7 42.2142 38.8753C42.1426 39.0506 42.1079 39.2387 42.112 39.428V42.128H39.412C39.2233 42.1237 39.0356 42.1579 38.8604 42.2283C38.6852 42.2988 38.5262 42.4042 38.393 42.538C38.2576 42.6699 38.1508 42.8282 38.0794 43.0032C38.008 43.1782 37.9735 43.366 37.978 43.555C37.9738 43.745 38.0084 43.9338 38.0797 44.1099C38.1511 44.2859 38.2577 44.4456 38.393 44.579C38.5253 44.7144 38.6841 44.8213 38.8593 44.8928ZM42.9854 21.913C43.1604 21.9843 43.3481 22.0186 43.537 22.014L43.54 22.018C43.7308 22.02 43.92 21.9838 44.0966 21.9115C44.2732 21.8392 44.4335 21.7322 44.568 21.597C44.7062 21.4662 44.8156 21.3081 44.8892 21.1326C44.9627 20.9572 44.9987 20.7682 44.995 20.578V16.447C44.9983 16.2556 44.9623 16.0654 44.8892 15.8884C44.8161 15.7114 44.7075 15.5514 44.57 15.418C44.4367 15.2806 44.2766 15.1719 44.0996 15.0988C43.9226 15.0257 43.7325 14.9897 43.541 14.993H39.41C39.2204 14.989 39.032 15.0242 38.8566 15.0965C38.6813 15.1688 38.5228 15.2766 38.391 15.413C38.2559 15.5474 38.1494 15.7078 38.0781 15.8845C38.0068 16.0612 37.972 16.2505 37.976 16.441C37.9721 16.6309 38.0069 16.8196 38.0782 16.9957C38.1496 17.1717 38.256 17.3314 38.391 17.465C38.5233 17.6005 38.682 17.7072 38.8573 17.7788C39.0326 17.8504 39.2207 17.8851 39.41 17.881H42.11V20.581C42.1057 20.7698 42.1399 20.9575 42.2104 21.1326C42.2808 21.3078 42.3862 21.4668 42.52 21.6C42.652 21.7353 42.8104 21.8418 42.9854 21.913ZM40.517 38.294H38.237V36.013H40.517V33.733H38.237V36.013H35.957V38.293H33.677V36.013H31.397L31.401 38.293H33.677V40.573H35.957V38.293L38.237 38.294V40.574H40.517V38.294ZM38.238 31.452H35.958V33.732H33.678V31.452H31.398L31.401 33.732H33.678V36.012H35.958V33.732H38.238V31.452ZM40.519 28.556V19.435H31.401V28.556H40.519ZM28.542 40.578V31.457H19.421V40.578H28.542ZM28.542 28.561V19.44H19.421V28.561H28.542ZM26.507 33.495V38.54L21.455 38.547V33.495H26.507ZM26.507 21.471V26.523H21.455V21.471H26.507ZM38.488 21.471V26.523H33.436V21.471H38.488Z" fill="#00AB84"/>
</svg>
