<svg width="14" height="15" viewBox="0 0 14 15" fill="none" xmlns="http://www.w3.org/2000/svg">
<path d="M2.33333 15C1.68519 15 1.13426 14.779 0.680556 14.3371C0.226852 13.8952 0 13.3586 0 12.7273V11.2121C0 10.9975 0.074537 10.8176 0.223611 10.6723C0.372685 10.5271 0.557407 10.4545 0.777778 10.4545H2.33333V0.30303C2.33333 0.214646 2.37222 0.154672 2.45 0.123106C2.52778 0.0915404 2.59907 0.107323 2.66389 0.170455L3.22778 0.719697C3.30556 0.795455 3.3963 0.833333 3.5 0.833333C3.6037 0.833333 3.69444 0.795455 3.77222 0.719697L4.39444 0.113636C4.47222 0.0378788 4.56296 0 4.66667 0C4.77037 0 4.86111 0.0378788 4.93889 0.113636L5.56111 0.719697C5.63889 0.795455 5.72963 0.833333 5.83333 0.833333C5.93704 0.833333 6.02778 0.795455 6.10556 0.719697L6.72778 0.113636C6.80556 0.0378788 6.8963 0 7 0C7.1037 0 7.19444 0.0378788 7.27222 0.113636L7.89444 0.719697C7.97222 0.795455 8.06296 0.833333 8.16667 0.833333C8.27037 0.833333 8.36111 0.795455 8.43889 0.719697L9.06111 0.113636C9.13889 0.0378788 9.22963 0 9.33333 0C9.43704 0 9.52778 0.0378788 9.60556 0.113636L10.2278 0.719697C10.3056 0.795455 10.3963 0.833333 10.5 0.833333C10.6037 0.833333 10.6944 0.795455 10.7722 0.719697L11.3944 0.113636C11.4722 0.0378788 11.563 0 11.6667 0C11.7704 0 11.8611 0.0378788 11.9389 0.113636L12.5611 0.719697C12.6389 0.795455 12.7296 0.833333 12.8333 0.833333C12.937 0.833333 13.0278 0.795455 13.1056 0.719697L13.6694 0.170455C13.7343 0.107323 13.8056 0.0915404 13.8833 0.123106C13.9611 0.154672 14 0.214646 14 0.30303V12.7273C14 13.3586 13.7731 13.8952 13.3194 14.3371C12.8657 14.779 12.3148 15 11.6667 15H2.33333ZM11.6667 13.4848C11.887 13.4848 12.0718 13.4122 12.2208 13.267C12.3699 13.1218 12.4444 12.9419 12.4444 12.7273V2.12121H3.88889V10.4545H10.1111C10.3315 10.4545 10.5162 10.5271 10.6653 10.6723C10.8144 10.8176 10.8889 10.9975 10.8889 11.2121V12.7273C10.8889 12.9419 10.9634 13.1218 11.1125 13.267C11.2616 13.4122 11.4463 13.4848 11.6667 13.4848ZM5.44444 3.63636H8.55556C8.77593 3.63636 8.96065 3.70896 9.10972 3.85417C9.2588 3.99937 9.33333 4.17929 9.33333 4.39394C9.33333 4.60859 9.2588 4.78851 9.10972 4.93371C8.96065 5.07891 8.77593 5.15152 8.55556 5.15152H5.44444C5.22407 5.15152 5.03935 5.07891 4.89028 4.93371C4.7412 4.78851 4.66667 4.60859 4.66667 4.39394C4.66667 4.17929 4.7412 3.99937 4.89028 3.85417C5.03935 3.70896 5.22407 3.63636 5.44444 3.63636ZM5.44444 5.90909H8.55556C8.77593 5.90909 8.96065 5.98169 9.10972 6.12689C9.2588 6.2721 9.33333 6.45202 9.33333 6.66667C9.33333 6.88131 9.2588 7.06124 9.10972 7.20644C8.96065 7.35164 8.77593 7.42424 8.55556 7.42424H5.44444C5.22407 7.42424 5.03935 7.35164 4.89028 7.20644C4.7412 7.06124 4.66667 6.88131 4.66667 6.66667C4.66667 6.45202 4.7412 6.2721 4.89028 6.12689C5.03935 5.98169 5.22407 5.90909 5.44444 5.90909ZM10.8889 5.15152C10.6685 5.15152 10.4838 5.07891 10.3347 4.93371C10.1856 4.78851 10.1111 4.60859 10.1111 4.39394C10.1111 4.17929 10.1856 3.99937 10.3347 3.85417C10.4838 3.70896 10.6685 3.63636 10.8889 3.63636C11.1093 3.63636 11.294 3.70896 11.4431 3.85417C11.5921 3.99937 11.6667 4.17929 11.6667 4.39394C11.6667 4.60859 11.5921 4.78851 11.4431 4.93371C11.294 5.07891 11.1093 5.15152 10.8889 5.15152ZM10.8889 7.42424C10.6685 7.42424 10.4838 7.35164 10.3347 7.20644C10.1856 7.06124 10.1111 6.88131 10.1111 6.66667C10.1111 6.45202 10.1856 6.2721 10.3347 6.12689C10.4838 5.98169 10.6685 5.90909 10.8889 5.90909C11.1093 5.90909 11.294 5.98169 11.4431 6.12689C11.5921 6.2721 11.6667 6.45202 11.6667 6.66667C11.6667 6.88131 11.5921 7.06124 11.4431 7.20644C11.294 7.35164 11.1093 7.42424 10.8889 7.42424ZM2.33333 13.4848H9.33333V11.9697H1.55556V12.7273C1.55556 12.9419 1.63009 13.1218 1.77917 13.267C1.92824 13.4122 2.11296 13.4848 2.33333 13.4848Z" fill="#00AB84"/>
</svg>
