<svg width="29" height="21" viewBox="0 0 29 21" fill="none" xmlns="http://www.w3.org/2000/svg">
    <path d="M24.473 11.695a1.249 1.249 0 0 1-.884-.344 1.12 1.12 0 0 1-.368-.852 1.115 1.115 0 0 1 .368-.85c.239-.225.556-.348.884-.342h3.294a1.212 1.212 0 0 1 1.145.733c.061.146.09.304.087.463a1.133 1.133 0 0 1-.354.851 1.214 1.214 0 0 1-.878.342l-3.294-.001zm-.078 9.063-2.677-1.91a1.227 1.227 0 0 1-.485-.785 1.1 1.1 0 0 1 .233-.9 1.217 1.217 0 0 1 .82-.47c.327-.045.66.04.927.235l2.658 1.911c.258.188.432.47.485.784a1.032 1.032 0 0 1-.243.88 1.215 1.215 0 0 1-.81.48 1.182 1.182 0 0 1-.908-.224v-.001zm-1.08-16.719a1.229 1.229 0 0 1-.918.235 1.22 1.22 0 0 1-.829-.47 1.122 1.122 0 0 1-.247-.9 1.136 1.136 0 0 1 .5-.788L24.396.238a1.2 1.2 0 0 1 .908-.23 1.216 1.216 0 0 1 .81.465 1.1 1.1 0 0 1 .257.9 1.135 1.135 0 0 1-.5.788l-2.556 1.878zM4.425 20.201v-5.272h-1.94a2.6 2.6 0 0 1-1.769-.834A2.51 2.51 0 0 1 0 12.312V8.69a2.5 2.5 0 0 1 .8-1.858 2.657 2.657 0 0 1 1.918-.773h5.8l5.41-3.123a1.3 1.3 0 0 1 1.358-.012 1.234 1.234 0 0 1 .674 1.149v12.856a1.234 1.234 0 0 1-.674 1.149 1.27 1.27 0 0 1-1.358-.031l-5.41-3.123h-1.3v5.277H4.425zm12.894-4.815V5.597a6.311 6.311 0 0 1 1.808 2.125c.453.856.685 1.81.677 2.779a5.858 5.858 0 0 1-.673 2.777 6.1 6.1 0 0 1-1.812 2.108zm-4.077-.746V6.361L9.194 8.69H2.716v3.622h6.48l4.046 2.328z" fill="#EF3346"/>
</svg>
