<svg width="30" height="39" viewBox="0 0 30 39" fill="none" xmlns="http://www.w3.org/2000/svg">
    <path d="M26.846 39H3.129a3.124 3.124 0 0 1-3.13-3.13v-19.7a3.141 3.141 0 0 1 .913-2.22 3.127 3.127 0 0 1 2.217-.923h3V8.861a8.86 8.86 0 0 1 17.723 0v4.166h2.994a3.152 3.152 0 0 1 3.152 3.143v19.7A3.142 3.142 0 0 1 26.846 39zM17.14 22.746l2.572 5.809-1.252 3.006h1.37l1.3-3.135 2.385-5.68h-1.377l-1.762 4.414-1.838-4.414h-1.398zm-2.383-.387V29h1.258v-8.8h-1.37l-3.199 5.179-3.217-5.18H6.88V29h1.258v-6.625l3.31 5.143 3.31-5.153v-.006zm.236-19.218A5.698 5.698 0 0 0 9.26 8.865v4.166h11.455V8.865a5.676 5.676 0 0 0-.42-2.199 5.672 5.672 0 0 0-3.104-3.104 5.668 5.668 0 0 0-2.197-.421z" fill="#00AB84"/>
</svg>
