<svg xmlns="http://www.w3.org/2000/svg" width="20" height="20" viewBox="0 0 20 20">
    <path d="M75.859-879.522a1.089 1.089 0 0 0 .789-.3 1.035 1.035 0 0 0 .311-.779 1.1 1.1 0 0 0-.308-.8 1.045 1.045 0 0 0-.785-.318 1.058 1.058 0 0 0-.789.318 1.091 1.091 0 0 0-.311.8 1.042 1.042 0 0 0 .308.779 1.076 1.076 0 0 0 .785.3zm.08-4.019a.916.916 0 0 0 .678-.276.929.929 0 0 0 .273-.679v-4.425a.921.921 0 0 0-.278-.679.93.93 0 0 0-.682-.276.916.916 0 0 0-.678.276.929.929 0 0 0-.273.679v4.425a.921.921 0 0 0 .278.679.93.93 0 0 0 .682.276zm-.069 8.841a9.756 9.756 0 0 1-3.9-.782 10.084 10.084 0 0 1-3.179-2.144 10.085 10.085 0 0 1-2.144-3.179 9.76 9.76 0 0 1-.782-3.9 9.774 9.774 0 0 1 .782-3.9 9.962 9.962 0 0 1 2.141-3.169 10.239 10.239 0 0 1 3.178-2.138 9.705 9.705 0 0 1 3.9-.788 9.734 9.734 0 0 1 3.9.787 10.107 10.107 0 0 1 3.17 2.135 10.089 10.089 0 0 1 2.137 3.172 9.748 9.748 0 0 1 .787 3.906 9.694 9.694 0 0 1-.788 3.9 10.2 10.2 0 0 1-2.138 3.173 10.05 10.05 0 0 1-3.171 2.142 9.735 9.735 0 0 1-3.9.786z" transform="translate(-65.869 894.696)" style="fill:#ef3346"/>
</svg>
